M48
; DRILL file {KiCad (5.1.9)-1} date 09/28/21 11:41:41
; FORMAT={2:4/ absolute / inch / suppress trailing zeros}
; #@! TF.CreationDate,2021-09-28T11:41:41-07:00
; #@! TF.GenerationSoftware,Kicad,Pcbnew,(5.1.9)-1
FMAT,2
INCH,LZ
T1C0.0157
T2C0.0315
T3C0.0394
T4C0.1063
%
G90
G05
T1
X043504Y-038031
X0445Y-037
X05311Y-04
X05315Y-040984
T2
X04248Y-037
X04248Y-038
X04248Y-039
X04248Y-04
X04248Y-041
X04248Y-042
X04248Y-043
X04248Y-044
X04548Y-037
X04548Y-038
X04548Y-039
X04548Y-04
X04548Y-041
X04548Y-042
X04548Y-043
X04548Y-044
X0515Y-037
X0515Y-038
X0515Y-039
X0515Y-04
X0515Y-041
X0515Y-042
X0515Y-043
X0515Y-044
X0545Y-037
X0545Y-038
X0545Y-039
X0545Y-04
X0545Y-041
X0545Y-042
X0545Y-043
X0545Y-044
T3
X047976Y-039134
X048976Y-039134
T4
X043Y-035106
X043Y-045894
X054Y-035106
X054Y-045894
T0
M30
