%TF.GenerationSoftware,KiCad,Pcbnew,(5.1.9)-1*%
%TF.CreationDate,2021-09-28T11:41:38-07:00*%
%TF.ProjectId,Apple2to1,4170706c-6532-4746-9f31-2e6b69636164,rev?*%
%TF.SameCoordinates,Original*%
%TF.FileFunction,Legend,Top*%
%TF.FilePolarity,Positive*%
%FSLAX46Y46*%
G04 Gerber Fmt 4.6, Leading zero omitted, Abs format (unit mm)*
G04 Created by KiCad (PCBNEW (5.1.9)-1) date 2021-09-28 11:41:38*
%MOMM*%
%LPD*%
G01*
G04 APERTURE LIST*
%ADD10C,0.150000*%
%ADD11C,0.120000*%
G04 APERTURE END LIST*
D10*
X129500000Y-92485714D02*
X129738095Y-92723809D01*
X129500000Y-92961904D01*
X129261904Y-92723809D01*
X129500000Y-92485714D01*
X129500000Y-92961904D01*
X106600000Y-92385714D02*
X106838095Y-92623809D01*
X106600000Y-92861904D01*
X106361904Y-92623809D01*
X106600000Y-92385714D01*
X106600000Y-92861904D01*
X113842857Y-87854761D02*
X113985714Y-87902380D01*
X114223809Y-87902380D01*
X114319047Y-87854761D01*
X114366666Y-87807142D01*
X114414285Y-87711904D01*
X114414285Y-87616666D01*
X114366666Y-87521428D01*
X114319047Y-87473809D01*
X114223809Y-87426190D01*
X114033333Y-87378571D01*
X113938095Y-87330952D01*
X113890476Y-87283333D01*
X113842857Y-87188095D01*
X113842857Y-87092857D01*
X113890476Y-86997619D01*
X113938095Y-86950000D01*
X114033333Y-86902380D01*
X114271428Y-86902380D01*
X114414285Y-86950000D01*
X114842857Y-87902380D02*
X114842857Y-87235714D01*
X114842857Y-86902380D02*
X114795238Y-86950000D01*
X114842857Y-86997619D01*
X114890476Y-86950000D01*
X114842857Y-86902380D01*
X114842857Y-86997619D01*
X115319047Y-87902380D02*
X115319047Y-87235714D01*
X115319047Y-87330952D02*
X115366666Y-87283333D01*
X115461904Y-87235714D01*
X115604761Y-87235714D01*
X115700000Y-87283333D01*
X115747619Y-87378571D01*
X115747619Y-87902380D01*
X115747619Y-87378571D02*
X115795238Y-87283333D01*
X115890476Y-87235714D01*
X116033333Y-87235714D01*
X116128571Y-87283333D01*
X116176190Y-87378571D01*
X116176190Y-87902380D01*
X116652380Y-87235714D02*
X116652380Y-88235714D01*
X116652380Y-87283333D02*
X116747619Y-87235714D01*
X116938095Y-87235714D01*
X117033333Y-87283333D01*
X117080952Y-87330952D01*
X117128571Y-87426190D01*
X117128571Y-87711904D01*
X117080952Y-87807142D01*
X117033333Y-87854761D01*
X116938095Y-87902380D01*
X116747619Y-87902380D01*
X116652380Y-87854761D01*
X117700000Y-87902380D02*
X117604761Y-87854761D01*
X117557142Y-87759523D01*
X117557142Y-86902380D01*
X118461904Y-87854761D02*
X118366666Y-87902380D01*
X118176190Y-87902380D01*
X118080952Y-87854761D01*
X118033333Y-87759523D01*
X118033333Y-87378571D01*
X118080952Y-87283333D01*
X118176190Y-87235714D01*
X118366666Y-87235714D01*
X118461904Y-87283333D01*
X118509523Y-87378571D01*
X118509523Y-87473809D01*
X118033333Y-87569047D01*
X119700000Y-87902380D02*
X119700000Y-86902380D01*
X120271428Y-87902380D02*
X119842857Y-87330952D01*
X120271428Y-86902380D02*
X119700000Y-87473809D01*
X121080952Y-87854761D02*
X120985714Y-87902380D01*
X120795238Y-87902380D01*
X120700000Y-87854761D01*
X120652380Y-87759523D01*
X120652380Y-87378571D01*
X120700000Y-87283333D01*
X120795238Y-87235714D01*
X120985714Y-87235714D01*
X121080952Y-87283333D01*
X121128571Y-87378571D01*
X121128571Y-87473809D01*
X120652380Y-87569047D01*
X121461904Y-87235714D02*
X121700000Y-87902380D01*
X121938095Y-87235714D02*
X121700000Y-87902380D01*
X121604761Y-88140476D01*
X121557142Y-88188095D01*
X121461904Y-88235714D01*
X122319047Y-87902380D02*
X122319047Y-86902380D01*
X122319047Y-87283333D02*
X122414285Y-87235714D01*
X122604761Y-87235714D01*
X122700000Y-87283333D01*
X122747619Y-87330952D01*
X122795238Y-87426190D01*
X122795238Y-87711904D01*
X122747619Y-87807142D01*
X122700000Y-87854761D01*
X122604761Y-87902380D01*
X122414285Y-87902380D01*
X122319047Y-87854761D01*
X123366666Y-87902380D02*
X123271428Y-87854761D01*
X123223809Y-87807142D01*
X123176190Y-87711904D01*
X123176190Y-87426190D01*
X123223809Y-87330952D01*
X123271428Y-87283333D01*
X123366666Y-87235714D01*
X123509523Y-87235714D01*
X123604761Y-87283333D01*
X123652380Y-87330952D01*
X123700000Y-87426190D01*
X123700000Y-87711904D01*
X123652380Y-87807142D01*
X123604761Y-87854761D01*
X123509523Y-87902380D01*
X123366666Y-87902380D01*
X124557142Y-87902380D02*
X124557142Y-87378571D01*
X124509523Y-87283333D01*
X124414285Y-87235714D01*
X124223809Y-87235714D01*
X124128571Y-87283333D01*
X124557142Y-87854761D02*
X124461904Y-87902380D01*
X124223809Y-87902380D01*
X124128571Y-87854761D01*
X124080952Y-87759523D01*
X124080952Y-87664285D01*
X124128571Y-87569047D01*
X124223809Y-87521428D01*
X124461904Y-87521428D01*
X124557142Y-87473809D01*
X125033333Y-87902380D02*
X125033333Y-87235714D01*
X125033333Y-87426190D02*
X125080952Y-87330952D01*
X125128571Y-87283333D01*
X125223809Y-87235714D01*
X125319047Y-87235714D01*
X126080952Y-87902380D02*
X126080952Y-86902380D01*
X126080952Y-87854761D02*
X125985714Y-87902380D01*
X125795238Y-87902380D01*
X125700000Y-87854761D01*
X125652380Y-87807142D01*
X125604761Y-87711904D01*
X125604761Y-87426190D01*
X125652380Y-87330952D01*
X125700000Y-87283333D01*
X125795238Y-87235714D01*
X125985714Y-87235714D01*
X126080952Y-87283333D01*
X127271428Y-87616666D02*
X127747619Y-87616666D01*
X127176190Y-87902380D02*
X127509523Y-86902380D01*
X127842857Y-87902380D01*
X128604761Y-87902380D02*
X128604761Y-86902380D01*
X128604761Y-87854761D02*
X128509523Y-87902380D01*
X128319047Y-87902380D01*
X128223809Y-87854761D01*
X128176190Y-87807142D01*
X128128571Y-87711904D01*
X128128571Y-87426190D01*
X128176190Y-87330952D01*
X128223809Y-87283333D01*
X128319047Y-87235714D01*
X128509523Y-87235714D01*
X128604761Y-87283333D01*
X129509523Y-87902380D02*
X129509523Y-87378571D01*
X129461904Y-87283333D01*
X129366666Y-87235714D01*
X129176190Y-87235714D01*
X129080952Y-87283333D01*
X129509523Y-87854761D02*
X129414285Y-87902380D01*
X129176190Y-87902380D01*
X129080952Y-87854761D01*
X129033333Y-87759523D01*
X129033333Y-87664285D01*
X129080952Y-87569047D01*
X129176190Y-87521428D01*
X129414285Y-87521428D01*
X129509523Y-87473809D01*
X129985714Y-87235714D02*
X129985714Y-88235714D01*
X129985714Y-87283333D02*
X130080952Y-87235714D01*
X130271428Y-87235714D01*
X130366666Y-87283333D01*
X130414285Y-87330952D01*
X130461904Y-87426190D01*
X130461904Y-87711904D01*
X130414285Y-87807142D01*
X130366666Y-87854761D01*
X130271428Y-87902380D01*
X130080952Y-87902380D01*
X129985714Y-87854761D01*
X130747619Y-87235714D02*
X131128571Y-87235714D01*
X130890476Y-86902380D02*
X130890476Y-87759523D01*
X130938095Y-87854761D01*
X131033333Y-87902380D01*
X131128571Y-87902380D01*
X131604761Y-87902380D02*
X131509523Y-87854761D01*
X131461904Y-87807142D01*
X131414285Y-87711904D01*
X131414285Y-87426190D01*
X131461904Y-87330952D01*
X131509523Y-87283333D01*
X131604761Y-87235714D01*
X131747619Y-87235714D01*
X131842857Y-87283333D01*
X131890476Y-87330952D01*
X131938095Y-87426190D01*
X131938095Y-87711904D01*
X131890476Y-87807142D01*
X131842857Y-87854761D01*
X131747619Y-87902380D01*
X131604761Y-87902380D01*
X132366666Y-87902380D02*
X132366666Y-87235714D01*
X132366666Y-87426190D02*
X132414285Y-87330952D01*
X132461904Y-87283333D01*
X132557142Y-87235714D01*
X132652380Y-87235714D01*
X122200000Y-89552380D02*
X122200000Y-88552380D01*
X122438095Y-88552380D01*
X122580952Y-88600000D01*
X122676190Y-88695238D01*
X122723809Y-88790476D01*
X122771428Y-88980952D01*
X122771428Y-89123809D01*
X122723809Y-89314285D01*
X122676190Y-89409523D01*
X122580952Y-89504761D01*
X122438095Y-89552380D01*
X122200000Y-89552380D01*
X123200000Y-89552380D02*
X123200000Y-88552380D01*
X123676190Y-89552380D02*
X123676190Y-88552380D01*
X124057142Y-88552380D01*
X124152380Y-88600000D01*
X124200000Y-88647619D01*
X124247619Y-88742857D01*
X124247619Y-88885714D01*
X124200000Y-88980952D01*
X124152380Y-89028571D01*
X124057142Y-89076190D01*
X123676190Y-89076190D01*
X117438095Y-90916666D02*
X117914285Y-90916666D01*
X117342857Y-91202380D02*
X117676190Y-90202380D01*
X118009523Y-91202380D01*
X118771428Y-91202380D02*
X118771428Y-90678571D01*
X118723809Y-90583333D01*
X118628571Y-90535714D01*
X118438095Y-90535714D01*
X118342857Y-90583333D01*
X118771428Y-91154761D02*
X118676190Y-91202380D01*
X118438095Y-91202380D01*
X118342857Y-91154761D01*
X118295238Y-91059523D01*
X118295238Y-90964285D01*
X118342857Y-90869047D01*
X118438095Y-90821428D01*
X118676190Y-90821428D01*
X118771428Y-90773809D01*
X119247619Y-91202380D02*
X119247619Y-90535714D01*
X119247619Y-90726190D02*
X119295238Y-90630952D01*
X119342857Y-90583333D01*
X119438095Y-90535714D01*
X119533333Y-90535714D01*
X120009523Y-91202380D02*
X119914285Y-91154761D01*
X119866666Y-91107142D01*
X119819047Y-91011904D01*
X119819047Y-90726190D01*
X119866666Y-90630952D01*
X119914285Y-90583333D01*
X120009523Y-90535714D01*
X120152380Y-90535714D01*
X120247619Y-90583333D01*
X120295238Y-90630952D01*
X120342857Y-90726190D01*
X120342857Y-91011904D01*
X120295238Y-91107142D01*
X120247619Y-91154761D01*
X120152380Y-91202380D01*
X120009523Y-91202380D01*
X120771428Y-90535714D02*
X120771428Y-91202380D01*
X120771428Y-90630952D02*
X120819047Y-90583333D01*
X120914285Y-90535714D01*
X121057142Y-90535714D01*
X121152380Y-90583333D01*
X121200000Y-90678571D01*
X121200000Y-91202380D01*
X122438095Y-91202380D02*
X122438095Y-90202380D01*
X123009523Y-91202380D01*
X123009523Y-90202380D01*
X123866666Y-91154761D02*
X123771428Y-91202380D01*
X123580952Y-91202380D01*
X123485714Y-91154761D01*
X123438095Y-91059523D01*
X123438095Y-90678571D01*
X123485714Y-90583333D01*
X123580952Y-90535714D01*
X123771428Y-90535714D01*
X123866666Y-90583333D01*
X123914285Y-90678571D01*
X123914285Y-90773809D01*
X123438095Y-90869047D01*
X124247619Y-90535714D02*
X124438095Y-91202380D01*
X124628571Y-90726190D01*
X124819047Y-91202380D01*
X125009523Y-90535714D01*
X125819047Y-91154761D02*
X125723809Y-91202380D01*
X125533333Y-91202380D01*
X125438095Y-91154761D01*
X125390476Y-91107142D01*
X125342857Y-91011904D01*
X125342857Y-90726190D01*
X125390476Y-90630952D01*
X125438095Y-90583333D01*
X125533333Y-90535714D01*
X125723809Y-90535714D01*
X125819047Y-90583333D01*
X126390476Y-91202380D02*
X126295238Y-91154761D01*
X126247619Y-91107142D01*
X126200000Y-91011904D01*
X126200000Y-90726190D01*
X126247619Y-90630952D01*
X126295238Y-90583333D01*
X126390476Y-90535714D01*
X126533333Y-90535714D01*
X126628571Y-90583333D01*
X126676190Y-90630952D01*
X126723809Y-90726190D01*
X126723809Y-91011904D01*
X126676190Y-91107142D01*
X126628571Y-91154761D01*
X126533333Y-91202380D01*
X126390476Y-91202380D01*
X127152380Y-91202380D02*
X127152380Y-90535714D01*
X127152380Y-90630952D02*
X127200000Y-90583333D01*
X127295238Y-90535714D01*
X127438095Y-90535714D01*
X127533333Y-90583333D01*
X127580952Y-90678571D01*
X127580952Y-91202380D01*
X127580952Y-90678571D02*
X127628571Y-90583333D01*
X127723809Y-90535714D01*
X127866666Y-90535714D01*
X127961904Y-90583333D01*
X128009523Y-90678571D01*
X128009523Y-91202380D01*
X128485714Y-91202380D02*
X128485714Y-90202380D01*
X128485714Y-90583333D02*
X128580952Y-90535714D01*
X128771428Y-90535714D01*
X128866666Y-90583333D01*
X128914285Y-90630952D01*
X128961904Y-90726190D01*
X128961904Y-91011904D01*
X128914285Y-91107142D01*
X128866666Y-91154761D01*
X128771428Y-91202380D01*
X128580952Y-91202380D01*
X128485714Y-91154761D01*
X130490476Y-114366666D02*
X130966666Y-114366666D01*
X130395238Y-114652380D02*
X130728571Y-113652380D01*
X131061904Y-114652380D01*
X131395238Y-113985714D02*
X131395238Y-114985714D01*
X131395238Y-114033333D02*
X131490476Y-113985714D01*
X131680952Y-113985714D01*
X131776190Y-114033333D01*
X131823809Y-114080952D01*
X131871428Y-114176190D01*
X131871428Y-114461904D01*
X131823809Y-114557142D01*
X131776190Y-114604761D01*
X131680952Y-114652380D01*
X131490476Y-114652380D01*
X131395238Y-114604761D01*
X132300000Y-113985714D02*
X132300000Y-114985714D01*
X132300000Y-114033333D02*
X132395238Y-113985714D01*
X132585714Y-113985714D01*
X132680952Y-114033333D01*
X132728571Y-114080952D01*
X132776190Y-114176190D01*
X132776190Y-114461904D01*
X132728571Y-114557142D01*
X132680952Y-114604761D01*
X132585714Y-114652380D01*
X132395238Y-114652380D01*
X132300000Y-114604761D01*
X133347619Y-114652380D02*
X133252380Y-114604761D01*
X133204761Y-114509523D01*
X133204761Y-113652380D01*
X134109523Y-114604761D02*
X134014285Y-114652380D01*
X133823809Y-114652380D01*
X133728571Y-114604761D01*
X133680952Y-114509523D01*
X133680952Y-114128571D01*
X133728571Y-114033333D01*
X133823809Y-113985714D01*
X134014285Y-113985714D01*
X134109523Y-114033333D01*
X134157142Y-114128571D01*
X134157142Y-114223809D01*
X133680952Y-114319047D01*
X135347619Y-114652380D02*
X135347619Y-113652380D01*
X135823809Y-114652380D02*
X135823809Y-113652380D01*
X137014285Y-113604761D02*
X136157142Y-114890476D01*
X137347619Y-114652380D02*
X137347619Y-113652380D01*
X137823809Y-114652380D02*
X137823809Y-113652380D01*
X138300000Y-114271428D02*
X139061904Y-114271428D01*
X138680952Y-114652380D02*
X138680952Y-113890476D01*
X109109523Y-114266666D02*
X109585714Y-114266666D01*
X109014285Y-114552380D02*
X109347619Y-113552380D01*
X109680952Y-114552380D01*
X110014285Y-113885714D02*
X110014285Y-114885714D01*
X110014285Y-113933333D02*
X110109523Y-113885714D01*
X110300000Y-113885714D01*
X110395238Y-113933333D01*
X110442857Y-113980952D01*
X110490476Y-114076190D01*
X110490476Y-114361904D01*
X110442857Y-114457142D01*
X110395238Y-114504761D01*
X110300000Y-114552380D01*
X110109523Y-114552380D01*
X110014285Y-114504761D01*
X110919047Y-113885714D02*
X110919047Y-114885714D01*
X110919047Y-113933333D02*
X111014285Y-113885714D01*
X111204761Y-113885714D01*
X111300000Y-113933333D01*
X111347619Y-113980952D01*
X111395238Y-114076190D01*
X111395238Y-114361904D01*
X111347619Y-114457142D01*
X111300000Y-114504761D01*
X111204761Y-114552380D01*
X111014285Y-114552380D01*
X110919047Y-114504761D01*
X111966666Y-114552380D02*
X111871428Y-114504761D01*
X111823809Y-114409523D01*
X111823809Y-113552380D01*
X112728571Y-114504761D02*
X112633333Y-114552380D01*
X112442857Y-114552380D01*
X112347619Y-114504761D01*
X112299999Y-114409523D01*
X112299999Y-114028571D01*
X112347619Y-113933333D01*
X112442857Y-113885714D01*
X112633333Y-113885714D01*
X112728571Y-113933333D01*
X112776190Y-114028571D01*
X112776190Y-114123809D01*
X112299999Y-114219047D01*
X114490476Y-114552380D02*
X113919047Y-114552380D01*
X114204761Y-114552380D02*
X114204761Y-113552380D01*
X114109523Y-113695238D01*
X114014285Y-113790476D01*
X113919047Y-113838095D01*
X121957142Y-102532142D02*
X121909523Y-102579761D01*
X121766666Y-102627380D01*
X121671428Y-102627380D01*
X121528571Y-102579761D01*
X121433333Y-102484523D01*
X121385714Y-102389285D01*
X121338095Y-102198809D01*
X121338095Y-102055952D01*
X121385714Y-101865476D01*
X121433333Y-101770238D01*
X121528571Y-101675000D01*
X121671428Y-101627380D01*
X121766666Y-101627380D01*
X121909523Y-101675000D01*
X121957142Y-101722619D01*
X122528571Y-102627380D02*
X122433333Y-102579761D01*
X122385714Y-102484523D01*
X122385714Y-101627380D01*
X123290476Y-102579761D02*
X123195238Y-102627380D01*
X123004761Y-102627380D01*
X122909523Y-102579761D01*
X122861904Y-102484523D01*
X122861904Y-102103571D01*
X122909523Y-102008333D01*
X123004761Y-101960714D01*
X123195238Y-101960714D01*
X123290476Y-102008333D01*
X123338095Y-102103571D01*
X123338095Y-102198809D01*
X122861904Y-102294047D01*
X124195238Y-102627380D02*
X124195238Y-102103571D01*
X124147619Y-102008333D01*
X124052380Y-101960714D01*
X123861904Y-101960714D01*
X123766666Y-102008333D01*
X124195238Y-102579761D02*
X124100000Y-102627380D01*
X123861904Y-102627380D01*
X123766666Y-102579761D01*
X123719047Y-102484523D01*
X123719047Y-102389285D01*
X123766666Y-102294047D01*
X123861904Y-102246428D01*
X124100000Y-102246428D01*
X124195238Y-102198809D01*
X124671428Y-102627380D02*
X124671428Y-101960714D01*
X124671428Y-102151190D02*
X124719047Y-102055952D01*
X124766666Y-102008333D01*
X124861904Y-101960714D01*
X124957142Y-101960714D01*
X120766666Y-104229761D02*
X120909523Y-104277380D01*
X121147619Y-104277380D01*
X121242857Y-104229761D01*
X121290476Y-104182142D01*
X121338095Y-104086904D01*
X121338095Y-103991666D01*
X121290476Y-103896428D01*
X121242857Y-103848809D01*
X121147619Y-103801190D01*
X120957142Y-103753571D01*
X120861904Y-103705952D01*
X120814285Y-103658333D01*
X120766666Y-103563095D01*
X120766666Y-103467857D01*
X120814285Y-103372619D01*
X120861904Y-103325000D01*
X120957142Y-103277380D01*
X121195238Y-103277380D01*
X121338095Y-103325000D01*
X122195238Y-104229761D02*
X122100000Y-104277380D01*
X121909523Y-104277380D01*
X121814285Y-104229761D01*
X121766666Y-104182142D01*
X121719047Y-104086904D01*
X121719047Y-103801190D01*
X121766666Y-103705952D01*
X121814285Y-103658333D01*
X121909523Y-103610714D01*
X122100000Y-103610714D01*
X122195238Y-103658333D01*
X122623809Y-104277380D02*
X122623809Y-103610714D01*
X122623809Y-103801190D02*
X122671428Y-103705952D01*
X122719047Y-103658333D01*
X122814285Y-103610714D01*
X122909523Y-103610714D01*
X123623809Y-104229761D02*
X123528571Y-104277380D01*
X123338095Y-104277380D01*
X123242857Y-104229761D01*
X123195238Y-104134523D01*
X123195238Y-103753571D01*
X123242857Y-103658333D01*
X123338095Y-103610714D01*
X123528571Y-103610714D01*
X123623809Y-103658333D01*
X123671428Y-103753571D01*
X123671428Y-103848809D01*
X123195238Y-103944047D01*
X124480952Y-104229761D02*
X124385714Y-104277380D01*
X124195238Y-104277380D01*
X124100000Y-104229761D01*
X124052380Y-104134523D01*
X124052380Y-103753571D01*
X124100000Y-103658333D01*
X124195238Y-103610714D01*
X124385714Y-103610714D01*
X124480952Y-103658333D01*
X124528571Y-103753571D01*
X124528571Y-103848809D01*
X124052380Y-103944047D01*
X124957142Y-103610714D02*
X124957142Y-104277380D01*
X124957142Y-103705952D02*
X125004761Y-103658333D01*
X125100000Y-103610714D01*
X125242857Y-103610714D01*
X125338095Y-103658333D01*
X125385714Y-103753571D01*
X125385714Y-104277380D01*
D11*
%TO.C,J3*%
X120530000Y-98070000D02*
X120530000Y-100730000D01*
X123130000Y-98070000D02*
X120530000Y-98070000D01*
X123130000Y-100730000D02*
X120530000Y-100730000D01*
X123130000Y-98070000D02*
X123130000Y-100730000D01*
X124400000Y-98070000D02*
X125730000Y-98070000D01*
X125730000Y-98070000D02*
X125730000Y-99400000D01*
%TO.C,J2*%
X112710000Y-92650000D02*
G75*
G02*
X110710000Y-92650000I-1000000J0D01*
G01*
X110710000Y-92650000D02*
X109060000Y-92650000D01*
X109060000Y-92650000D02*
X109060000Y-113090000D01*
X109060000Y-113090000D02*
X114360000Y-113090000D01*
X114360000Y-113090000D02*
X114360000Y-92650000D01*
X114360000Y-92650000D02*
X112710000Y-92650000D01*
%TO.C,J1*%
X135620000Y-92650000D02*
G75*
G02*
X133620000Y-92650000I-1000000J0D01*
G01*
X133620000Y-92650000D02*
X131970000Y-92650000D01*
X131970000Y-92650000D02*
X131970000Y-113090000D01*
X131970000Y-113090000D02*
X137270000Y-113090000D01*
X137270000Y-113090000D02*
X137270000Y-92650000D01*
X137270000Y-92650000D02*
X135620000Y-92650000D01*
%TO.C,J3*%
D10*
X126182380Y-99733333D02*
X126896666Y-99733333D01*
X127039523Y-99780952D01*
X127134761Y-99876190D01*
X127182380Y-100019047D01*
X127182380Y-100114285D01*
X126182380Y-99352380D02*
X126182380Y-98733333D01*
X126563333Y-99066666D01*
X126563333Y-98923809D01*
X126610952Y-98828571D01*
X126658571Y-98780952D01*
X126753809Y-98733333D01*
X126991904Y-98733333D01*
X127087142Y-98780952D01*
X127134761Y-98828571D01*
X127182380Y-98923809D01*
X127182380Y-99209523D01*
X127134761Y-99304761D01*
X127087142Y-99352380D01*
%TO.C,J2*%
X111376666Y-91102380D02*
X111376666Y-91816666D01*
X111329047Y-91959523D01*
X111233809Y-92054761D01*
X111090952Y-92102380D01*
X110995714Y-92102380D01*
X111805238Y-91197619D02*
X111852857Y-91150000D01*
X111948095Y-91102380D01*
X112186190Y-91102380D01*
X112281428Y-91150000D01*
X112329047Y-91197619D01*
X112376666Y-91292857D01*
X112376666Y-91388095D01*
X112329047Y-91530952D01*
X111757619Y-92102380D01*
X112376666Y-92102380D01*
%TO.C,J1*%
X134286666Y-91102380D02*
X134286666Y-91816666D01*
X134239047Y-91959523D01*
X134143809Y-92054761D01*
X134000952Y-92102380D01*
X133905714Y-92102380D01*
X135286666Y-92102380D02*
X134715238Y-92102380D01*
X135000952Y-92102380D02*
X135000952Y-91102380D01*
X134905714Y-91245238D01*
X134810476Y-91340476D01*
X134715238Y-91388095D01*
%TD*%
M02*
