%TF.GenerationSoftware,KiCad,Pcbnew,(5.1.9)-1*%
%TF.CreationDate,2021-08-12T01:32:41-07:00*%
%TF.ProjectId,Apple2to1,4170706c-6532-4746-9f31-2e6b69636164,rev?*%
%TF.SameCoordinates,Original*%
%TF.FileFunction,Copper,L1,Top*%
%TF.FilePolarity,Positive*%
%FSLAX46Y46*%
G04 Gerber Fmt 4.6, Leading zero omitted, Abs format (unit mm)*
G04 Created by KiCad (PCBNEW (5.1.9)-1) date 2021-08-12 01:32:41*
%MOMM*%
%LPD*%
G01*
G04 APERTURE LIST*
%TA.AperFunction,ComponentPad*%
%ADD10R,1.700000X1.700000*%
%TD*%
%TA.AperFunction,ComponentPad*%
%ADD11O,1.700000X1.700000*%
%TD*%
%TA.AperFunction,Conductor*%
%ADD12C,0.500000*%
%TD*%
%TA.AperFunction,Conductor*%
%ADD13C,0.250000*%
%TD*%
%TA.AperFunction,Conductor*%
%ADD14C,0.254000*%
%TD*%
%TA.AperFunction,Conductor*%
%ADD15C,0.100000*%
%TD*%
G04 APERTURE END LIST*
D10*
%TO.P,J3,1*%
%TO.N,+5V*%
X124400000Y-99400000D03*
D11*
%TO.P,J3,2*%
%TO.N,Net-(J1-Pad4)*%
X121860000Y-99400000D03*
%TD*%
%TO.P,J1,9*%
%TO.N,N/C*%
X133350000Y-111760000D03*
%TO.P,J1,8*%
%TO.N,GND*%
X130810000Y-111760000D03*
%TO.P,J1,10*%
%TO.N,/data3*%
X133350000Y-109220000D03*
%TO.P,J1,7*%
%TO.N,/data7*%
X130810000Y-109220000D03*
%TO.P,J1,11*%
%TO.N,/data4*%
X133350000Y-106680000D03*
%TO.P,J1,6*%
%TO.N,/data5*%
X130810000Y-106680000D03*
%TO.P,J1,12*%
%TO.N,/data1*%
X133350000Y-104140000D03*
%TO.P,J1,5*%
%TO.N,/data6*%
X130810000Y-104140000D03*
%TO.P,J1,13*%
%TO.N,/data2*%
X133350000Y-101600000D03*
%TO.P,J1,4*%
%TO.N,Net-(J1-Pad4)*%
X130810000Y-101600000D03*
%TO.P,J1,14*%
%TO.N,N/C*%
X133350000Y-99060000D03*
%TO.P,J1,3*%
%TO.N,/reset*%
X130810000Y-99060000D03*
%TO.P,J1,15*%
%TO.N,-12V*%
X133350000Y-96520000D03*
%TO.P,J1,2*%
%TO.N,/strobe*%
X130810000Y-96520000D03*
%TO.P,J1,16*%
%TO.N,N/C*%
X133350000Y-93980000D03*
D10*
%TO.P,J1,1*%
%TO.N,+5V*%
X130810000Y-93980000D03*
%TD*%
%TO.P,J2,1*%
%TO.N,/reset*%
X113030000Y-93980000D03*
D11*
%TO.P,J2,16*%
%TO.N,+5V*%
X115570000Y-93980000D03*
%TO.P,J2,2*%
%TO.N,/data4*%
X113030000Y-96520000D03*
%TO.P,J2,15*%
%TO.N,+5V*%
X115570000Y-96520000D03*
%TO.P,J2,3*%
%TO.N,/data3*%
X113030000Y-99060000D03*
%TO.P,J2,14*%
%TO.N,/strobe*%
X115570000Y-99060000D03*
%TO.P,J2,4*%
%TO.N,/data2*%
X113030000Y-101600000D03*
%TO.P,J2,13*%
%TO.N,N/C*%
X115570000Y-101600000D03*
%TO.P,J2,5*%
%TO.N,/data1*%
X113030000Y-104140000D03*
%TO.P,J2,12*%
%TO.N,Net-(J1-Pad4)*%
X115570000Y-104140000D03*
%TO.P,J2,6*%
%TO.N,/data5*%
X113030000Y-106680000D03*
%TO.P,J2,11*%
%TO.N,-12V*%
X115570000Y-106680000D03*
%TO.P,J2,7*%
%TO.N,/data6*%
X113030000Y-109220000D03*
%TO.P,J2,10*%
%TO.N,N/C*%
X115570000Y-109220000D03*
%TO.P,J2,8*%
%TO.N,/data7*%
X113030000Y-111760000D03*
%TO.P,J2,9*%
%TO.N,GND*%
X115570000Y-111760000D03*
%TD*%
D12*
%TO.N,-12V*%
X115570000Y-106680000D02*
X119780000Y-106680000D01*
X119780000Y-106680000D02*
X128900000Y-115800000D01*
X128900000Y-115800000D02*
X132300000Y-115800000D01*
X132300000Y-115800000D02*
X135700000Y-112400000D01*
X135700000Y-98870000D02*
X133350000Y-96520000D01*
X135700000Y-112400000D02*
X135700000Y-98870000D01*
D13*
%TO.N,/data2*%
X132050000Y-102900000D02*
X133350000Y-101600000D01*
X114330000Y-102900000D02*
X132050000Y-102900000D01*
X113030000Y-101600000D02*
X114330000Y-102900000D01*
%TO.N,/data1*%
X132090000Y-105400000D02*
X133350000Y-104140000D01*
X114290000Y-105400000D02*
X132090000Y-105400000D01*
X113030000Y-104140000D02*
X114290000Y-105400000D01*
%TD*%
D14*
%TO.N,+5V*%
X136219750Y-88410915D02*
X135894636Y-88628149D01*
X135618149Y-88904636D01*
X135400915Y-89229750D01*
X135251282Y-89590997D01*
X135175000Y-89974495D01*
X135175000Y-90365505D01*
X135251282Y-90749003D01*
X135400915Y-91110250D01*
X135618149Y-91435364D01*
X135894636Y-91711851D01*
X136219750Y-91929085D01*
X136580997Y-92078718D01*
X136964495Y-92155000D01*
X137355505Y-92155000D01*
X137739003Y-92078718D01*
X138100250Y-91929085D01*
X138425364Y-91711851D01*
X138701851Y-91435364D01*
X138919085Y-91110250D01*
X139040000Y-90818335D01*
X139040001Y-114921668D01*
X138919085Y-114629750D01*
X138701851Y-114304636D01*
X138425364Y-114028149D01*
X138100250Y-113810915D01*
X137739003Y-113661282D01*
X137355505Y-113585000D01*
X136964495Y-113585000D01*
X136580997Y-113661282D01*
X136219750Y-113810915D01*
X135894636Y-114028149D01*
X135618149Y-114304636D01*
X135400915Y-114629750D01*
X135251282Y-114990997D01*
X135175000Y-115374495D01*
X135175000Y-115765505D01*
X135251282Y-116149003D01*
X135400915Y-116510250D01*
X135618149Y-116835364D01*
X135894636Y-117111851D01*
X136219750Y-117329085D01*
X136511665Y-117450000D01*
X109868335Y-117450000D01*
X110160250Y-117329085D01*
X110485364Y-117111851D01*
X110761851Y-116835364D01*
X110979085Y-116510250D01*
X111128718Y-116149003D01*
X111205000Y-115765505D01*
X111205000Y-115374495D01*
X111128718Y-114990997D01*
X110979085Y-114629750D01*
X110761851Y-114304636D01*
X110485364Y-114028149D01*
X110160250Y-113810915D01*
X109799003Y-113661282D01*
X109415505Y-113585000D01*
X109024495Y-113585000D01*
X108640997Y-113661282D01*
X108279750Y-113810915D01*
X107954636Y-114028149D01*
X107678149Y-114304636D01*
X107460915Y-114629750D01*
X107340000Y-114921665D01*
X107340000Y-93130000D01*
X111541928Y-93130000D01*
X111541928Y-94830000D01*
X111554188Y-94954482D01*
X111590498Y-95074180D01*
X111649463Y-95184494D01*
X111728815Y-95281185D01*
X111825506Y-95360537D01*
X111935820Y-95419502D01*
X112008380Y-95441513D01*
X111876525Y-95573368D01*
X111714010Y-95816589D01*
X111602068Y-96086842D01*
X111545000Y-96373740D01*
X111545000Y-96666260D01*
X111602068Y-96953158D01*
X111714010Y-97223411D01*
X111876525Y-97466632D01*
X112083368Y-97673475D01*
X112257760Y-97790000D01*
X112083368Y-97906525D01*
X111876525Y-98113368D01*
X111714010Y-98356589D01*
X111602068Y-98626842D01*
X111545000Y-98913740D01*
X111545000Y-99206260D01*
X111602068Y-99493158D01*
X111714010Y-99763411D01*
X111876525Y-100006632D01*
X112083368Y-100213475D01*
X112257760Y-100330000D01*
X112083368Y-100446525D01*
X111876525Y-100653368D01*
X111714010Y-100896589D01*
X111602068Y-101166842D01*
X111545000Y-101453740D01*
X111545000Y-101746260D01*
X111602068Y-102033158D01*
X111714010Y-102303411D01*
X111876525Y-102546632D01*
X112083368Y-102753475D01*
X112257760Y-102870000D01*
X112083368Y-102986525D01*
X111876525Y-103193368D01*
X111714010Y-103436589D01*
X111602068Y-103706842D01*
X111545000Y-103993740D01*
X111545000Y-104286260D01*
X111602068Y-104573158D01*
X111714010Y-104843411D01*
X111876525Y-105086632D01*
X112083368Y-105293475D01*
X112257760Y-105410000D01*
X112083368Y-105526525D01*
X111876525Y-105733368D01*
X111714010Y-105976589D01*
X111602068Y-106246842D01*
X111545000Y-106533740D01*
X111545000Y-106826260D01*
X111602068Y-107113158D01*
X111714010Y-107383411D01*
X111876525Y-107626632D01*
X112083368Y-107833475D01*
X112257760Y-107950000D01*
X112083368Y-108066525D01*
X111876525Y-108273368D01*
X111714010Y-108516589D01*
X111602068Y-108786842D01*
X111545000Y-109073740D01*
X111545000Y-109366260D01*
X111602068Y-109653158D01*
X111714010Y-109923411D01*
X111876525Y-110166632D01*
X112083368Y-110373475D01*
X112257760Y-110490000D01*
X112083368Y-110606525D01*
X111876525Y-110813368D01*
X111714010Y-111056589D01*
X111602068Y-111326842D01*
X111545000Y-111613740D01*
X111545000Y-111906260D01*
X111602068Y-112193158D01*
X111714010Y-112463411D01*
X111876525Y-112706632D01*
X112083368Y-112913475D01*
X112326589Y-113075990D01*
X112596842Y-113187932D01*
X112883740Y-113245000D01*
X113176260Y-113245000D01*
X113463158Y-113187932D01*
X113733411Y-113075990D01*
X113976632Y-112913475D01*
X114183475Y-112706632D01*
X114300000Y-112532240D01*
X114416525Y-112706632D01*
X114623368Y-112913475D01*
X114866589Y-113075990D01*
X115136842Y-113187932D01*
X115423740Y-113245000D01*
X115716260Y-113245000D01*
X116003158Y-113187932D01*
X116273411Y-113075990D01*
X116516632Y-112913475D01*
X116723475Y-112706632D01*
X116885990Y-112463411D01*
X116997932Y-112193158D01*
X117055000Y-111906260D01*
X117055000Y-111613740D01*
X116997932Y-111326842D01*
X116885990Y-111056589D01*
X116723475Y-110813368D01*
X116516632Y-110606525D01*
X116342240Y-110490000D01*
X116516632Y-110373475D01*
X116723475Y-110166632D01*
X116885990Y-109923411D01*
X116997932Y-109653158D01*
X117055000Y-109366260D01*
X117055000Y-109073740D01*
X116997932Y-108786842D01*
X116885990Y-108516589D01*
X116723475Y-108273368D01*
X116516632Y-108066525D01*
X116342240Y-107950000D01*
X116516632Y-107833475D01*
X116723475Y-107626632D01*
X116764656Y-107565000D01*
X119413422Y-107565000D01*
X128243470Y-116395049D01*
X128271183Y-116428817D01*
X128304951Y-116456530D01*
X128304953Y-116456532D01*
X128405941Y-116539411D01*
X128559686Y-116621589D01*
X128726510Y-116672195D01*
X128856523Y-116685000D01*
X128856531Y-116685000D01*
X128900000Y-116689281D01*
X128943469Y-116685000D01*
X132256531Y-116685000D01*
X132300000Y-116689281D01*
X132343469Y-116685000D01*
X132343477Y-116685000D01*
X132473490Y-116672195D01*
X132640313Y-116621589D01*
X132794059Y-116539411D01*
X132928817Y-116428817D01*
X132956534Y-116395044D01*
X136295050Y-113056529D01*
X136328817Y-113028817D01*
X136439411Y-112894059D01*
X136521589Y-112740313D01*
X136572195Y-112573490D01*
X136585000Y-112443477D01*
X136585000Y-112443467D01*
X136589281Y-112400001D01*
X136585000Y-112356535D01*
X136585000Y-98913469D01*
X136589281Y-98870000D01*
X136585000Y-98826531D01*
X136585000Y-98826523D01*
X136572195Y-98696510D01*
X136521589Y-98529687D01*
X136439411Y-98375941D01*
X136328817Y-98241183D01*
X136295049Y-98213470D01*
X134820539Y-96738960D01*
X134835000Y-96666260D01*
X134835000Y-96373740D01*
X134777932Y-96086842D01*
X134665990Y-95816589D01*
X134503475Y-95573368D01*
X134296632Y-95366525D01*
X134122240Y-95250000D01*
X134296632Y-95133475D01*
X134503475Y-94926632D01*
X134665990Y-94683411D01*
X134777932Y-94413158D01*
X134835000Y-94126260D01*
X134835000Y-93833740D01*
X134777932Y-93546842D01*
X134665990Y-93276589D01*
X134503475Y-93033368D01*
X134296632Y-92826525D01*
X134053411Y-92664010D01*
X133783158Y-92552068D01*
X133496260Y-92495000D01*
X133203740Y-92495000D01*
X132916842Y-92552068D01*
X132646589Y-92664010D01*
X132403368Y-92826525D01*
X132271513Y-92958380D01*
X132249502Y-92885820D01*
X132190537Y-92775506D01*
X132111185Y-92678815D01*
X132014494Y-92599463D01*
X131904180Y-92540498D01*
X131784482Y-92504188D01*
X131660000Y-92491928D01*
X131095750Y-92495000D01*
X130937000Y-92653750D01*
X130937000Y-93853000D01*
X130957000Y-93853000D01*
X130957000Y-94107000D01*
X130937000Y-94107000D01*
X130937000Y-94127000D01*
X130683000Y-94127000D01*
X130683000Y-94107000D01*
X129483750Y-94107000D01*
X129325000Y-94265750D01*
X129321928Y-94830000D01*
X129334188Y-94954482D01*
X129370498Y-95074180D01*
X129429463Y-95184494D01*
X129508815Y-95281185D01*
X129605506Y-95360537D01*
X129715820Y-95419502D01*
X129788380Y-95441513D01*
X129656525Y-95573368D01*
X129494010Y-95816589D01*
X129382068Y-96086842D01*
X129325000Y-96373740D01*
X129325000Y-96666260D01*
X129382068Y-96953158D01*
X129494010Y-97223411D01*
X129656525Y-97466632D01*
X129863368Y-97673475D01*
X130037760Y-97790000D01*
X129863368Y-97906525D01*
X129656525Y-98113368D01*
X129494010Y-98356589D01*
X129382068Y-98626842D01*
X129325000Y-98913740D01*
X129325000Y-99206260D01*
X129382068Y-99493158D01*
X129494010Y-99763411D01*
X129656525Y-100006632D01*
X129863368Y-100213475D01*
X130037760Y-100330000D01*
X129863368Y-100446525D01*
X129656525Y-100653368D01*
X129494010Y-100896589D01*
X129382068Y-101166842D01*
X129325000Y-101453740D01*
X129325000Y-101746260D01*
X129382068Y-102033158D01*
X129426323Y-102140000D01*
X116953677Y-102140000D01*
X116997932Y-102033158D01*
X117055000Y-101746260D01*
X117055000Y-101453740D01*
X116997932Y-101166842D01*
X116885990Y-100896589D01*
X116723475Y-100653368D01*
X116516632Y-100446525D01*
X116342240Y-100330000D01*
X116516632Y-100213475D01*
X116723475Y-100006632D01*
X116885990Y-99763411D01*
X116997932Y-99493158D01*
X117045555Y-99253740D01*
X120375000Y-99253740D01*
X120375000Y-99546260D01*
X120432068Y-99833158D01*
X120544010Y-100103411D01*
X120706525Y-100346632D01*
X120913368Y-100553475D01*
X121156589Y-100715990D01*
X121426842Y-100827932D01*
X121713740Y-100885000D01*
X122006260Y-100885000D01*
X122293158Y-100827932D01*
X122563411Y-100715990D01*
X122806632Y-100553475D01*
X122938487Y-100421620D01*
X122960498Y-100494180D01*
X123019463Y-100604494D01*
X123098815Y-100701185D01*
X123195506Y-100780537D01*
X123305820Y-100839502D01*
X123425518Y-100875812D01*
X123550000Y-100888072D01*
X124114250Y-100885000D01*
X124273000Y-100726250D01*
X124273000Y-99527000D01*
X124527000Y-99527000D01*
X124527000Y-100726250D01*
X124685750Y-100885000D01*
X125250000Y-100888072D01*
X125374482Y-100875812D01*
X125494180Y-100839502D01*
X125604494Y-100780537D01*
X125701185Y-100701185D01*
X125780537Y-100604494D01*
X125839502Y-100494180D01*
X125875812Y-100374482D01*
X125888072Y-100250000D01*
X125885000Y-99685750D01*
X125726250Y-99527000D01*
X124527000Y-99527000D01*
X124273000Y-99527000D01*
X124253000Y-99527000D01*
X124253000Y-99273000D01*
X124273000Y-99273000D01*
X124273000Y-98073750D01*
X124527000Y-98073750D01*
X124527000Y-99273000D01*
X125726250Y-99273000D01*
X125885000Y-99114250D01*
X125888072Y-98550000D01*
X125875812Y-98425518D01*
X125839502Y-98305820D01*
X125780537Y-98195506D01*
X125701185Y-98098815D01*
X125604494Y-98019463D01*
X125494180Y-97960498D01*
X125374482Y-97924188D01*
X125250000Y-97911928D01*
X124685750Y-97915000D01*
X124527000Y-98073750D01*
X124273000Y-98073750D01*
X124114250Y-97915000D01*
X123550000Y-97911928D01*
X123425518Y-97924188D01*
X123305820Y-97960498D01*
X123195506Y-98019463D01*
X123098815Y-98098815D01*
X123019463Y-98195506D01*
X122960498Y-98305820D01*
X122938487Y-98378380D01*
X122806632Y-98246525D01*
X122563411Y-98084010D01*
X122293158Y-97972068D01*
X122006260Y-97915000D01*
X121713740Y-97915000D01*
X121426842Y-97972068D01*
X121156589Y-98084010D01*
X120913368Y-98246525D01*
X120706525Y-98453368D01*
X120544010Y-98696589D01*
X120432068Y-98966842D01*
X120375000Y-99253740D01*
X117045555Y-99253740D01*
X117055000Y-99206260D01*
X117055000Y-98913740D01*
X116997932Y-98626842D01*
X116885990Y-98356589D01*
X116723475Y-98113368D01*
X116516632Y-97906525D01*
X116334466Y-97784805D01*
X116451355Y-97715178D01*
X116667588Y-97520269D01*
X116841641Y-97286920D01*
X116966825Y-97024099D01*
X117011476Y-96876890D01*
X116890155Y-96647000D01*
X115697000Y-96647000D01*
X115697000Y-96667000D01*
X115443000Y-96667000D01*
X115443000Y-96647000D01*
X115423000Y-96647000D01*
X115423000Y-96393000D01*
X115443000Y-96393000D01*
X115443000Y-94107000D01*
X115697000Y-94107000D01*
X115697000Y-96393000D01*
X116890155Y-96393000D01*
X117011476Y-96163110D01*
X116966825Y-96015901D01*
X116841641Y-95753080D01*
X116667588Y-95519731D01*
X116451355Y-95324822D01*
X116325745Y-95250000D01*
X116451355Y-95175178D01*
X116667588Y-94980269D01*
X116841641Y-94746920D01*
X116966825Y-94484099D01*
X117011476Y-94336890D01*
X116890155Y-94107000D01*
X115697000Y-94107000D01*
X115443000Y-94107000D01*
X115423000Y-94107000D01*
X115423000Y-93853000D01*
X115443000Y-93853000D01*
X115443000Y-92659186D01*
X115697000Y-92659186D01*
X115697000Y-93853000D01*
X116890155Y-93853000D01*
X117011476Y-93623110D01*
X116966825Y-93475901D01*
X116841641Y-93213080D01*
X116779673Y-93130000D01*
X129321928Y-93130000D01*
X129325000Y-93694250D01*
X129483750Y-93853000D01*
X130683000Y-93853000D01*
X130683000Y-92653750D01*
X130524250Y-92495000D01*
X129960000Y-92491928D01*
X129835518Y-92504188D01*
X129715820Y-92540498D01*
X129605506Y-92599463D01*
X129508815Y-92678815D01*
X129429463Y-92775506D01*
X129370498Y-92885820D01*
X129334188Y-93005518D01*
X129321928Y-93130000D01*
X116779673Y-93130000D01*
X116667588Y-92979731D01*
X116451355Y-92784822D01*
X116201252Y-92635843D01*
X115926891Y-92538519D01*
X115697000Y-92659186D01*
X115443000Y-92659186D01*
X115213109Y-92538519D01*
X114938748Y-92635843D01*
X114688645Y-92784822D01*
X114492498Y-92961626D01*
X114469502Y-92885820D01*
X114410537Y-92775506D01*
X114331185Y-92678815D01*
X114234494Y-92599463D01*
X114124180Y-92540498D01*
X114004482Y-92504188D01*
X113880000Y-92491928D01*
X112180000Y-92491928D01*
X112055518Y-92504188D01*
X111935820Y-92540498D01*
X111825506Y-92599463D01*
X111728815Y-92678815D01*
X111649463Y-92775506D01*
X111590498Y-92885820D01*
X111554188Y-93005518D01*
X111541928Y-93130000D01*
X107340000Y-93130000D01*
X107340000Y-90818335D01*
X107460915Y-91110250D01*
X107678149Y-91435364D01*
X107954636Y-91711851D01*
X108279750Y-91929085D01*
X108640997Y-92078718D01*
X109024495Y-92155000D01*
X109415505Y-92155000D01*
X109799003Y-92078718D01*
X110160250Y-91929085D01*
X110485364Y-91711851D01*
X110761851Y-91435364D01*
X110979085Y-91110250D01*
X111128718Y-90749003D01*
X111205000Y-90365505D01*
X111205000Y-89974495D01*
X111128718Y-89590997D01*
X110979085Y-89229750D01*
X110761851Y-88904636D01*
X110485364Y-88628149D01*
X110160250Y-88410915D01*
X109868335Y-88290000D01*
X136511665Y-88290000D01*
X136219750Y-88410915D01*
%TA.AperFunction,Conductor*%
D15*
G36*
X136219750Y-88410915D02*
G01*
X135894636Y-88628149D01*
X135618149Y-88904636D01*
X135400915Y-89229750D01*
X135251282Y-89590997D01*
X135175000Y-89974495D01*
X135175000Y-90365505D01*
X135251282Y-90749003D01*
X135400915Y-91110250D01*
X135618149Y-91435364D01*
X135894636Y-91711851D01*
X136219750Y-91929085D01*
X136580997Y-92078718D01*
X136964495Y-92155000D01*
X137355505Y-92155000D01*
X137739003Y-92078718D01*
X138100250Y-91929085D01*
X138425364Y-91711851D01*
X138701851Y-91435364D01*
X138919085Y-91110250D01*
X139040000Y-90818335D01*
X139040001Y-114921668D01*
X138919085Y-114629750D01*
X138701851Y-114304636D01*
X138425364Y-114028149D01*
X138100250Y-113810915D01*
X137739003Y-113661282D01*
X137355505Y-113585000D01*
X136964495Y-113585000D01*
X136580997Y-113661282D01*
X136219750Y-113810915D01*
X135894636Y-114028149D01*
X135618149Y-114304636D01*
X135400915Y-114629750D01*
X135251282Y-114990997D01*
X135175000Y-115374495D01*
X135175000Y-115765505D01*
X135251282Y-116149003D01*
X135400915Y-116510250D01*
X135618149Y-116835364D01*
X135894636Y-117111851D01*
X136219750Y-117329085D01*
X136511665Y-117450000D01*
X109868335Y-117450000D01*
X110160250Y-117329085D01*
X110485364Y-117111851D01*
X110761851Y-116835364D01*
X110979085Y-116510250D01*
X111128718Y-116149003D01*
X111205000Y-115765505D01*
X111205000Y-115374495D01*
X111128718Y-114990997D01*
X110979085Y-114629750D01*
X110761851Y-114304636D01*
X110485364Y-114028149D01*
X110160250Y-113810915D01*
X109799003Y-113661282D01*
X109415505Y-113585000D01*
X109024495Y-113585000D01*
X108640997Y-113661282D01*
X108279750Y-113810915D01*
X107954636Y-114028149D01*
X107678149Y-114304636D01*
X107460915Y-114629750D01*
X107340000Y-114921665D01*
X107340000Y-93130000D01*
X111541928Y-93130000D01*
X111541928Y-94830000D01*
X111554188Y-94954482D01*
X111590498Y-95074180D01*
X111649463Y-95184494D01*
X111728815Y-95281185D01*
X111825506Y-95360537D01*
X111935820Y-95419502D01*
X112008380Y-95441513D01*
X111876525Y-95573368D01*
X111714010Y-95816589D01*
X111602068Y-96086842D01*
X111545000Y-96373740D01*
X111545000Y-96666260D01*
X111602068Y-96953158D01*
X111714010Y-97223411D01*
X111876525Y-97466632D01*
X112083368Y-97673475D01*
X112257760Y-97790000D01*
X112083368Y-97906525D01*
X111876525Y-98113368D01*
X111714010Y-98356589D01*
X111602068Y-98626842D01*
X111545000Y-98913740D01*
X111545000Y-99206260D01*
X111602068Y-99493158D01*
X111714010Y-99763411D01*
X111876525Y-100006632D01*
X112083368Y-100213475D01*
X112257760Y-100330000D01*
X112083368Y-100446525D01*
X111876525Y-100653368D01*
X111714010Y-100896589D01*
X111602068Y-101166842D01*
X111545000Y-101453740D01*
X111545000Y-101746260D01*
X111602068Y-102033158D01*
X111714010Y-102303411D01*
X111876525Y-102546632D01*
X112083368Y-102753475D01*
X112257760Y-102870000D01*
X112083368Y-102986525D01*
X111876525Y-103193368D01*
X111714010Y-103436589D01*
X111602068Y-103706842D01*
X111545000Y-103993740D01*
X111545000Y-104286260D01*
X111602068Y-104573158D01*
X111714010Y-104843411D01*
X111876525Y-105086632D01*
X112083368Y-105293475D01*
X112257760Y-105410000D01*
X112083368Y-105526525D01*
X111876525Y-105733368D01*
X111714010Y-105976589D01*
X111602068Y-106246842D01*
X111545000Y-106533740D01*
X111545000Y-106826260D01*
X111602068Y-107113158D01*
X111714010Y-107383411D01*
X111876525Y-107626632D01*
X112083368Y-107833475D01*
X112257760Y-107950000D01*
X112083368Y-108066525D01*
X111876525Y-108273368D01*
X111714010Y-108516589D01*
X111602068Y-108786842D01*
X111545000Y-109073740D01*
X111545000Y-109366260D01*
X111602068Y-109653158D01*
X111714010Y-109923411D01*
X111876525Y-110166632D01*
X112083368Y-110373475D01*
X112257760Y-110490000D01*
X112083368Y-110606525D01*
X111876525Y-110813368D01*
X111714010Y-111056589D01*
X111602068Y-111326842D01*
X111545000Y-111613740D01*
X111545000Y-111906260D01*
X111602068Y-112193158D01*
X111714010Y-112463411D01*
X111876525Y-112706632D01*
X112083368Y-112913475D01*
X112326589Y-113075990D01*
X112596842Y-113187932D01*
X112883740Y-113245000D01*
X113176260Y-113245000D01*
X113463158Y-113187932D01*
X113733411Y-113075990D01*
X113976632Y-112913475D01*
X114183475Y-112706632D01*
X114300000Y-112532240D01*
X114416525Y-112706632D01*
X114623368Y-112913475D01*
X114866589Y-113075990D01*
X115136842Y-113187932D01*
X115423740Y-113245000D01*
X115716260Y-113245000D01*
X116003158Y-113187932D01*
X116273411Y-113075990D01*
X116516632Y-112913475D01*
X116723475Y-112706632D01*
X116885990Y-112463411D01*
X116997932Y-112193158D01*
X117055000Y-111906260D01*
X117055000Y-111613740D01*
X116997932Y-111326842D01*
X116885990Y-111056589D01*
X116723475Y-110813368D01*
X116516632Y-110606525D01*
X116342240Y-110490000D01*
X116516632Y-110373475D01*
X116723475Y-110166632D01*
X116885990Y-109923411D01*
X116997932Y-109653158D01*
X117055000Y-109366260D01*
X117055000Y-109073740D01*
X116997932Y-108786842D01*
X116885990Y-108516589D01*
X116723475Y-108273368D01*
X116516632Y-108066525D01*
X116342240Y-107950000D01*
X116516632Y-107833475D01*
X116723475Y-107626632D01*
X116764656Y-107565000D01*
X119413422Y-107565000D01*
X128243470Y-116395049D01*
X128271183Y-116428817D01*
X128304951Y-116456530D01*
X128304953Y-116456532D01*
X128405941Y-116539411D01*
X128559686Y-116621589D01*
X128726510Y-116672195D01*
X128856523Y-116685000D01*
X128856531Y-116685000D01*
X128900000Y-116689281D01*
X128943469Y-116685000D01*
X132256531Y-116685000D01*
X132300000Y-116689281D01*
X132343469Y-116685000D01*
X132343477Y-116685000D01*
X132473490Y-116672195D01*
X132640313Y-116621589D01*
X132794059Y-116539411D01*
X132928817Y-116428817D01*
X132956534Y-116395044D01*
X136295050Y-113056529D01*
X136328817Y-113028817D01*
X136439411Y-112894059D01*
X136521589Y-112740313D01*
X136572195Y-112573490D01*
X136585000Y-112443477D01*
X136585000Y-112443467D01*
X136589281Y-112400001D01*
X136585000Y-112356535D01*
X136585000Y-98913469D01*
X136589281Y-98870000D01*
X136585000Y-98826531D01*
X136585000Y-98826523D01*
X136572195Y-98696510D01*
X136521589Y-98529687D01*
X136439411Y-98375941D01*
X136328817Y-98241183D01*
X136295049Y-98213470D01*
X134820539Y-96738960D01*
X134835000Y-96666260D01*
X134835000Y-96373740D01*
X134777932Y-96086842D01*
X134665990Y-95816589D01*
X134503475Y-95573368D01*
X134296632Y-95366525D01*
X134122240Y-95250000D01*
X134296632Y-95133475D01*
X134503475Y-94926632D01*
X134665990Y-94683411D01*
X134777932Y-94413158D01*
X134835000Y-94126260D01*
X134835000Y-93833740D01*
X134777932Y-93546842D01*
X134665990Y-93276589D01*
X134503475Y-93033368D01*
X134296632Y-92826525D01*
X134053411Y-92664010D01*
X133783158Y-92552068D01*
X133496260Y-92495000D01*
X133203740Y-92495000D01*
X132916842Y-92552068D01*
X132646589Y-92664010D01*
X132403368Y-92826525D01*
X132271513Y-92958380D01*
X132249502Y-92885820D01*
X132190537Y-92775506D01*
X132111185Y-92678815D01*
X132014494Y-92599463D01*
X131904180Y-92540498D01*
X131784482Y-92504188D01*
X131660000Y-92491928D01*
X131095750Y-92495000D01*
X130937000Y-92653750D01*
X130937000Y-93853000D01*
X130957000Y-93853000D01*
X130957000Y-94107000D01*
X130937000Y-94107000D01*
X130937000Y-94127000D01*
X130683000Y-94127000D01*
X130683000Y-94107000D01*
X129483750Y-94107000D01*
X129325000Y-94265750D01*
X129321928Y-94830000D01*
X129334188Y-94954482D01*
X129370498Y-95074180D01*
X129429463Y-95184494D01*
X129508815Y-95281185D01*
X129605506Y-95360537D01*
X129715820Y-95419502D01*
X129788380Y-95441513D01*
X129656525Y-95573368D01*
X129494010Y-95816589D01*
X129382068Y-96086842D01*
X129325000Y-96373740D01*
X129325000Y-96666260D01*
X129382068Y-96953158D01*
X129494010Y-97223411D01*
X129656525Y-97466632D01*
X129863368Y-97673475D01*
X130037760Y-97790000D01*
X129863368Y-97906525D01*
X129656525Y-98113368D01*
X129494010Y-98356589D01*
X129382068Y-98626842D01*
X129325000Y-98913740D01*
X129325000Y-99206260D01*
X129382068Y-99493158D01*
X129494010Y-99763411D01*
X129656525Y-100006632D01*
X129863368Y-100213475D01*
X130037760Y-100330000D01*
X129863368Y-100446525D01*
X129656525Y-100653368D01*
X129494010Y-100896589D01*
X129382068Y-101166842D01*
X129325000Y-101453740D01*
X129325000Y-101746260D01*
X129382068Y-102033158D01*
X129426323Y-102140000D01*
X116953677Y-102140000D01*
X116997932Y-102033158D01*
X117055000Y-101746260D01*
X117055000Y-101453740D01*
X116997932Y-101166842D01*
X116885990Y-100896589D01*
X116723475Y-100653368D01*
X116516632Y-100446525D01*
X116342240Y-100330000D01*
X116516632Y-100213475D01*
X116723475Y-100006632D01*
X116885990Y-99763411D01*
X116997932Y-99493158D01*
X117045555Y-99253740D01*
X120375000Y-99253740D01*
X120375000Y-99546260D01*
X120432068Y-99833158D01*
X120544010Y-100103411D01*
X120706525Y-100346632D01*
X120913368Y-100553475D01*
X121156589Y-100715990D01*
X121426842Y-100827932D01*
X121713740Y-100885000D01*
X122006260Y-100885000D01*
X122293158Y-100827932D01*
X122563411Y-100715990D01*
X122806632Y-100553475D01*
X122938487Y-100421620D01*
X122960498Y-100494180D01*
X123019463Y-100604494D01*
X123098815Y-100701185D01*
X123195506Y-100780537D01*
X123305820Y-100839502D01*
X123425518Y-100875812D01*
X123550000Y-100888072D01*
X124114250Y-100885000D01*
X124273000Y-100726250D01*
X124273000Y-99527000D01*
X124527000Y-99527000D01*
X124527000Y-100726250D01*
X124685750Y-100885000D01*
X125250000Y-100888072D01*
X125374482Y-100875812D01*
X125494180Y-100839502D01*
X125604494Y-100780537D01*
X125701185Y-100701185D01*
X125780537Y-100604494D01*
X125839502Y-100494180D01*
X125875812Y-100374482D01*
X125888072Y-100250000D01*
X125885000Y-99685750D01*
X125726250Y-99527000D01*
X124527000Y-99527000D01*
X124273000Y-99527000D01*
X124253000Y-99527000D01*
X124253000Y-99273000D01*
X124273000Y-99273000D01*
X124273000Y-98073750D01*
X124527000Y-98073750D01*
X124527000Y-99273000D01*
X125726250Y-99273000D01*
X125885000Y-99114250D01*
X125888072Y-98550000D01*
X125875812Y-98425518D01*
X125839502Y-98305820D01*
X125780537Y-98195506D01*
X125701185Y-98098815D01*
X125604494Y-98019463D01*
X125494180Y-97960498D01*
X125374482Y-97924188D01*
X125250000Y-97911928D01*
X124685750Y-97915000D01*
X124527000Y-98073750D01*
X124273000Y-98073750D01*
X124114250Y-97915000D01*
X123550000Y-97911928D01*
X123425518Y-97924188D01*
X123305820Y-97960498D01*
X123195506Y-98019463D01*
X123098815Y-98098815D01*
X123019463Y-98195506D01*
X122960498Y-98305820D01*
X122938487Y-98378380D01*
X122806632Y-98246525D01*
X122563411Y-98084010D01*
X122293158Y-97972068D01*
X122006260Y-97915000D01*
X121713740Y-97915000D01*
X121426842Y-97972068D01*
X121156589Y-98084010D01*
X120913368Y-98246525D01*
X120706525Y-98453368D01*
X120544010Y-98696589D01*
X120432068Y-98966842D01*
X120375000Y-99253740D01*
X117045555Y-99253740D01*
X117055000Y-99206260D01*
X117055000Y-98913740D01*
X116997932Y-98626842D01*
X116885990Y-98356589D01*
X116723475Y-98113368D01*
X116516632Y-97906525D01*
X116334466Y-97784805D01*
X116451355Y-97715178D01*
X116667588Y-97520269D01*
X116841641Y-97286920D01*
X116966825Y-97024099D01*
X117011476Y-96876890D01*
X116890155Y-96647000D01*
X115697000Y-96647000D01*
X115697000Y-96667000D01*
X115443000Y-96667000D01*
X115443000Y-96647000D01*
X115423000Y-96647000D01*
X115423000Y-96393000D01*
X115443000Y-96393000D01*
X115443000Y-94107000D01*
X115697000Y-94107000D01*
X115697000Y-96393000D01*
X116890155Y-96393000D01*
X117011476Y-96163110D01*
X116966825Y-96015901D01*
X116841641Y-95753080D01*
X116667588Y-95519731D01*
X116451355Y-95324822D01*
X116325745Y-95250000D01*
X116451355Y-95175178D01*
X116667588Y-94980269D01*
X116841641Y-94746920D01*
X116966825Y-94484099D01*
X117011476Y-94336890D01*
X116890155Y-94107000D01*
X115697000Y-94107000D01*
X115443000Y-94107000D01*
X115423000Y-94107000D01*
X115423000Y-93853000D01*
X115443000Y-93853000D01*
X115443000Y-92659186D01*
X115697000Y-92659186D01*
X115697000Y-93853000D01*
X116890155Y-93853000D01*
X117011476Y-93623110D01*
X116966825Y-93475901D01*
X116841641Y-93213080D01*
X116779673Y-93130000D01*
X129321928Y-93130000D01*
X129325000Y-93694250D01*
X129483750Y-93853000D01*
X130683000Y-93853000D01*
X130683000Y-92653750D01*
X130524250Y-92495000D01*
X129960000Y-92491928D01*
X129835518Y-92504188D01*
X129715820Y-92540498D01*
X129605506Y-92599463D01*
X129508815Y-92678815D01*
X129429463Y-92775506D01*
X129370498Y-92885820D01*
X129334188Y-93005518D01*
X129321928Y-93130000D01*
X116779673Y-93130000D01*
X116667588Y-92979731D01*
X116451355Y-92784822D01*
X116201252Y-92635843D01*
X115926891Y-92538519D01*
X115697000Y-92659186D01*
X115443000Y-92659186D01*
X115213109Y-92538519D01*
X114938748Y-92635843D01*
X114688645Y-92784822D01*
X114492498Y-92961626D01*
X114469502Y-92885820D01*
X114410537Y-92775506D01*
X114331185Y-92678815D01*
X114234494Y-92599463D01*
X114124180Y-92540498D01*
X114004482Y-92504188D01*
X113880000Y-92491928D01*
X112180000Y-92491928D01*
X112055518Y-92504188D01*
X111935820Y-92540498D01*
X111825506Y-92599463D01*
X111728815Y-92678815D01*
X111649463Y-92775506D01*
X111590498Y-92885820D01*
X111554188Y-93005518D01*
X111541928Y-93130000D01*
X107340000Y-93130000D01*
X107340000Y-90818335D01*
X107460915Y-91110250D01*
X107678149Y-91435364D01*
X107954636Y-91711851D01*
X108279750Y-91929085D01*
X108640997Y-92078718D01*
X109024495Y-92155000D01*
X109415505Y-92155000D01*
X109799003Y-92078718D01*
X110160250Y-91929085D01*
X110485364Y-91711851D01*
X110761851Y-91435364D01*
X110979085Y-91110250D01*
X111128718Y-90749003D01*
X111205000Y-90365505D01*
X111205000Y-89974495D01*
X111128718Y-89590997D01*
X110979085Y-89229750D01*
X110761851Y-88904636D01*
X110485364Y-88628149D01*
X110160250Y-88410915D01*
X109868335Y-88290000D01*
X136511665Y-88290000D01*
X136219750Y-88410915D01*
G37*
%TD.AperFunction*%
%TD*%
M02*
