M48
; DRILL file {KiCad (5.1.9)-1} date 08/12/21 01:32:47
; FORMAT={2:4/ absolute / inch / suppress trailing zeros}
; #@! TF.CreationDate,2021-08-12T01:32:47-07:00
; #@! TF.GenerationSoftware,Kicad,Pcbnew,(5.1.9)-1
FMAT,2
INCH,LZ
T1C0.0394
T2C0.1063
%
G90
G05
T1
X0445Y-037
X0445Y-038
X0445Y-039
X0445Y-04
X0445Y-041
X0445Y-042
X0445Y-043
X0445Y-044
X0455Y-037
X0455Y-038
X0455Y-039
X0455Y-04
X0455Y-041
X0455Y-042
X0455Y-043
X0455Y-044
X047976Y-039134
X048976Y-039134
X0515Y-037
X0515Y-038
X0515Y-039
X0515Y-04
X0515Y-041
X0515Y-042
X0515Y-043
X0515Y-044
X0525Y-037
X0525Y-038
X0525Y-039
X0525Y-04
X0525Y-041
X0525Y-042
X0525Y-043
X0525Y-044
T2
X043Y-0355
X043Y-0455
X054Y-0355
X054Y-0455
T0
M30
