%TF.GenerationSoftware,KiCad,Pcbnew,(5.1.9)-1*%
%TF.CreationDate,2021-08-12T01:32:41-07:00*%
%TF.ProjectId,Apple2to1,4170706c-6532-4746-9f31-2e6b69636164,rev?*%
%TF.SameCoordinates,Original*%
%TF.FileFunction,Legend,Top*%
%TF.FilePolarity,Positive*%
%FSLAX46Y46*%
G04 Gerber Fmt 4.6, Leading zero omitted, Abs format (unit mm)*
G04 Created by KiCad (PCBNEW (5.1.9)-1) date 2021-08-12 01:32:41*
%MOMM*%
%LPD*%
G01*
G04 APERTURE LIST*
%ADD10C,0.150000*%
%ADD11C,0.120000*%
G04 APERTURE END LIST*
D10*
X113832857Y-89749761D02*
X113975714Y-89797380D01*
X114213809Y-89797380D01*
X114309047Y-89749761D01*
X114356666Y-89702142D01*
X114404285Y-89606904D01*
X114404285Y-89511666D01*
X114356666Y-89416428D01*
X114309047Y-89368809D01*
X114213809Y-89321190D01*
X114023333Y-89273571D01*
X113928095Y-89225952D01*
X113880476Y-89178333D01*
X113832857Y-89083095D01*
X113832857Y-88987857D01*
X113880476Y-88892619D01*
X113928095Y-88845000D01*
X114023333Y-88797380D01*
X114261428Y-88797380D01*
X114404285Y-88845000D01*
X114832857Y-89797380D02*
X114832857Y-89130714D01*
X114832857Y-88797380D02*
X114785238Y-88845000D01*
X114832857Y-88892619D01*
X114880476Y-88845000D01*
X114832857Y-88797380D01*
X114832857Y-88892619D01*
X115309047Y-89797380D02*
X115309047Y-89130714D01*
X115309047Y-89225952D02*
X115356666Y-89178333D01*
X115451904Y-89130714D01*
X115594761Y-89130714D01*
X115690000Y-89178333D01*
X115737619Y-89273571D01*
X115737619Y-89797380D01*
X115737619Y-89273571D02*
X115785238Y-89178333D01*
X115880476Y-89130714D01*
X116023333Y-89130714D01*
X116118571Y-89178333D01*
X116166190Y-89273571D01*
X116166190Y-89797380D01*
X116642380Y-89130714D02*
X116642380Y-90130714D01*
X116642380Y-89178333D02*
X116737619Y-89130714D01*
X116928095Y-89130714D01*
X117023333Y-89178333D01*
X117070952Y-89225952D01*
X117118571Y-89321190D01*
X117118571Y-89606904D01*
X117070952Y-89702142D01*
X117023333Y-89749761D01*
X116928095Y-89797380D01*
X116737619Y-89797380D01*
X116642380Y-89749761D01*
X117690000Y-89797380D02*
X117594761Y-89749761D01*
X117547142Y-89654523D01*
X117547142Y-88797380D01*
X118451904Y-89749761D02*
X118356666Y-89797380D01*
X118166190Y-89797380D01*
X118070952Y-89749761D01*
X118023333Y-89654523D01*
X118023333Y-89273571D01*
X118070952Y-89178333D01*
X118166190Y-89130714D01*
X118356666Y-89130714D01*
X118451904Y-89178333D01*
X118499523Y-89273571D01*
X118499523Y-89368809D01*
X118023333Y-89464047D01*
X119690000Y-89797380D02*
X119690000Y-88797380D01*
X120261428Y-89797380D02*
X119832857Y-89225952D01*
X120261428Y-88797380D02*
X119690000Y-89368809D01*
X121070952Y-89749761D02*
X120975714Y-89797380D01*
X120785238Y-89797380D01*
X120690000Y-89749761D01*
X120642380Y-89654523D01*
X120642380Y-89273571D01*
X120690000Y-89178333D01*
X120785238Y-89130714D01*
X120975714Y-89130714D01*
X121070952Y-89178333D01*
X121118571Y-89273571D01*
X121118571Y-89368809D01*
X120642380Y-89464047D01*
X121451904Y-89130714D02*
X121690000Y-89797380D01*
X121928095Y-89130714D02*
X121690000Y-89797380D01*
X121594761Y-90035476D01*
X121547142Y-90083095D01*
X121451904Y-90130714D01*
X122309047Y-89797380D02*
X122309047Y-88797380D01*
X122309047Y-89178333D02*
X122404285Y-89130714D01*
X122594761Y-89130714D01*
X122690000Y-89178333D01*
X122737619Y-89225952D01*
X122785238Y-89321190D01*
X122785238Y-89606904D01*
X122737619Y-89702142D01*
X122690000Y-89749761D01*
X122594761Y-89797380D01*
X122404285Y-89797380D01*
X122309047Y-89749761D01*
X123356666Y-89797380D02*
X123261428Y-89749761D01*
X123213809Y-89702142D01*
X123166190Y-89606904D01*
X123166190Y-89321190D01*
X123213809Y-89225952D01*
X123261428Y-89178333D01*
X123356666Y-89130714D01*
X123499523Y-89130714D01*
X123594761Y-89178333D01*
X123642380Y-89225952D01*
X123690000Y-89321190D01*
X123690000Y-89606904D01*
X123642380Y-89702142D01*
X123594761Y-89749761D01*
X123499523Y-89797380D01*
X123356666Y-89797380D01*
X124547142Y-89797380D02*
X124547142Y-89273571D01*
X124499523Y-89178333D01*
X124404285Y-89130714D01*
X124213809Y-89130714D01*
X124118571Y-89178333D01*
X124547142Y-89749761D02*
X124451904Y-89797380D01*
X124213809Y-89797380D01*
X124118571Y-89749761D01*
X124070952Y-89654523D01*
X124070952Y-89559285D01*
X124118571Y-89464047D01*
X124213809Y-89416428D01*
X124451904Y-89416428D01*
X124547142Y-89368809D01*
X125023333Y-89797380D02*
X125023333Y-89130714D01*
X125023333Y-89321190D02*
X125070952Y-89225952D01*
X125118571Y-89178333D01*
X125213809Y-89130714D01*
X125309047Y-89130714D01*
X126070952Y-89797380D02*
X126070952Y-88797380D01*
X126070952Y-89749761D02*
X125975714Y-89797380D01*
X125785238Y-89797380D01*
X125690000Y-89749761D01*
X125642380Y-89702142D01*
X125594761Y-89606904D01*
X125594761Y-89321190D01*
X125642380Y-89225952D01*
X125690000Y-89178333D01*
X125785238Y-89130714D01*
X125975714Y-89130714D01*
X126070952Y-89178333D01*
X127261428Y-89511666D02*
X127737619Y-89511666D01*
X127166190Y-89797380D02*
X127499523Y-88797380D01*
X127832857Y-89797380D01*
X128594761Y-89797380D02*
X128594761Y-88797380D01*
X128594761Y-89749761D02*
X128499523Y-89797380D01*
X128309047Y-89797380D01*
X128213809Y-89749761D01*
X128166190Y-89702142D01*
X128118571Y-89606904D01*
X128118571Y-89321190D01*
X128166190Y-89225952D01*
X128213809Y-89178333D01*
X128309047Y-89130714D01*
X128499523Y-89130714D01*
X128594761Y-89178333D01*
X129499523Y-89797380D02*
X129499523Y-89273571D01*
X129451904Y-89178333D01*
X129356666Y-89130714D01*
X129166190Y-89130714D01*
X129070952Y-89178333D01*
X129499523Y-89749761D02*
X129404285Y-89797380D01*
X129166190Y-89797380D01*
X129070952Y-89749761D01*
X129023333Y-89654523D01*
X129023333Y-89559285D01*
X129070952Y-89464047D01*
X129166190Y-89416428D01*
X129404285Y-89416428D01*
X129499523Y-89368809D01*
X129975714Y-89130714D02*
X129975714Y-90130714D01*
X129975714Y-89178333D02*
X130070952Y-89130714D01*
X130261428Y-89130714D01*
X130356666Y-89178333D01*
X130404285Y-89225952D01*
X130451904Y-89321190D01*
X130451904Y-89606904D01*
X130404285Y-89702142D01*
X130356666Y-89749761D01*
X130261428Y-89797380D01*
X130070952Y-89797380D01*
X129975714Y-89749761D01*
X130737619Y-89130714D02*
X131118571Y-89130714D01*
X130880476Y-88797380D02*
X130880476Y-89654523D01*
X130928095Y-89749761D01*
X131023333Y-89797380D01*
X131118571Y-89797380D01*
X131594761Y-89797380D02*
X131499523Y-89749761D01*
X131451904Y-89702142D01*
X131404285Y-89606904D01*
X131404285Y-89321190D01*
X131451904Y-89225952D01*
X131499523Y-89178333D01*
X131594761Y-89130714D01*
X131737619Y-89130714D01*
X131832857Y-89178333D01*
X131880476Y-89225952D01*
X131928095Y-89321190D01*
X131928095Y-89606904D01*
X131880476Y-89702142D01*
X131832857Y-89749761D01*
X131737619Y-89797380D01*
X131594761Y-89797380D01*
X132356666Y-89797380D02*
X132356666Y-89130714D01*
X132356666Y-89321190D02*
X132404285Y-89225952D01*
X132451904Y-89178333D01*
X132547142Y-89130714D01*
X132642380Y-89130714D01*
X117428095Y-91161666D02*
X117904285Y-91161666D01*
X117332857Y-91447380D02*
X117666190Y-90447380D01*
X117999523Y-91447380D01*
X118761428Y-91447380D02*
X118761428Y-90923571D01*
X118713809Y-90828333D01*
X118618571Y-90780714D01*
X118428095Y-90780714D01*
X118332857Y-90828333D01*
X118761428Y-91399761D02*
X118666190Y-91447380D01*
X118428095Y-91447380D01*
X118332857Y-91399761D01*
X118285238Y-91304523D01*
X118285238Y-91209285D01*
X118332857Y-91114047D01*
X118428095Y-91066428D01*
X118666190Y-91066428D01*
X118761428Y-91018809D01*
X119237619Y-91447380D02*
X119237619Y-90780714D01*
X119237619Y-90971190D02*
X119285238Y-90875952D01*
X119332857Y-90828333D01*
X119428095Y-90780714D01*
X119523333Y-90780714D01*
X119999523Y-91447380D02*
X119904285Y-91399761D01*
X119856666Y-91352142D01*
X119809047Y-91256904D01*
X119809047Y-90971190D01*
X119856666Y-90875952D01*
X119904285Y-90828333D01*
X119999523Y-90780714D01*
X120142380Y-90780714D01*
X120237619Y-90828333D01*
X120285238Y-90875952D01*
X120332857Y-90971190D01*
X120332857Y-91256904D01*
X120285238Y-91352142D01*
X120237619Y-91399761D01*
X120142380Y-91447380D01*
X119999523Y-91447380D01*
X120761428Y-90780714D02*
X120761428Y-91447380D01*
X120761428Y-90875952D02*
X120809047Y-90828333D01*
X120904285Y-90780714D01*
X121047142Y-90780714D01*
X121142380Y-90828333D01*
X121190000Y-90923571D01*
X121190000Y-91447380D01*
X122428095Y-91447380D02*
X122428095Y-90447380D01*
X122999523Y-91447380D01*
X122999523Y-90447380D01*
X123856666Y-91399761D02*
X123761428Y-91447380D01*
X123570952Y-91447380D01*
X123475714Y-91399761D01*
X123428095Y-91304523D01*
X123428095Y-90923571D01*
X123475714Y-90828333D01*
X123570952Y-90780714D01*
X123761428Y-90780714D01*
X123856666Y-90828333D01*
X123904285Y-90923571D01*
X123904285Y-91018809D01*
X123428095Y-91114047D01*
X124237619Y-90780714D02*
X124428095Y-91447380D01*
X124618571Y-90971190D01*
X124809047Y-91447380D01*
X124999523Y-90780714D01*
X125809047Y-91399761D02*
X125713809Y-91447380D01*
X125523333Y-91447380D01*
X125428095Y-91399761D01*
X125380476Y-91352142D01*
X125332857Y-91256904D01*
X125332857Y-90971190D01*
X125380476Y-90875952D01*
X125428095Y-90828333D01*
X125523333Y-90780714D01*
X125713809Y-90780714D01*
X125809047Y-90828333D01*
X126380476Y-91447380D02*
X126285238Y-91399761D01*
X126237619Y-91352142D01*
X126190000Y-91256904D01*
X126190000Y-90971190D01*
X126237619Y-90875952D01*
X126285238Y-90828333D01*
X126380476Y-90780714D01*
X126523333Y-90780714D01*
X126618571Y-90828333D01*
X126666190Y-90875952D01*
X126713809Y-90971190D01*
X126713809Y-91256904D01*
X126666190Y-91352142D01*
X126618571Y-91399761D01*
X126523333Y-91447380D01*
X126380476Y-91447380D01*
X127142380Y-91447380D02*
X127142380Y-90780714D01*
X127142380Y-90875952D02*
X127190000Y-90828333D01*
X127285238Y-90780714D01*
X127428095Y-90780714D01*
X127523333Y-90828333D01*
X127570952Y-90923571D01*
X127570952Y-91447380D01*
X127570952Y-90923571D02*
X127618571Y-90828333D01*
X127713809Y-90780714D01*
X127856666Y-90780714D01*
X127951904Y-90828333D01*
X127999523Y-90923571D01*
X127999523Y-91447380D01*
X128475714Y-91447380D02*
X128475714Y-90447380D01*
X128475714Y-90828333D02*
X128570952Y-90780714D01*
X128761428Y-90780714D01*
X128856666Y-90828333D01*
X128904285Y-90875952D01*
X128951904Y-90971190D01*
X128951904Y-91256904D01*
X128904285Y-91352142D01*
X128856666Y-91399761D01*
X128761428Y-91447380D01*
X128570952Y-91447380D01*
X128475714Y-91399761D01*
X121957142Y-102532142D02*
X121909523Y-102579761D01*
X121766666Y-102627380D01*
X121671428Y-102627380D01*
X121528571Y-102579761D01*
X121433333Y-102484523D01*
X121385714Y-102389285D01*
X121338095Y-102198809D01*
X121338095Y-102055952D01*
X121385714Y-101865476D01*
X121433333Y-101770238D01*
X121528571Y-101675000D01*
X121671428Y-101627380D01*
X121766666Y-101627380D01*
X121909523Y-101675000D01*
X121957142Y-101722619D01*
X122528571Y-102627380D02*
X122433333Y-102579761D01*
X122385714Y-102484523D01*
X122385714Y-101627380D01*
X123290476Y-102579761D02*
X123195238Y-102627380D01*
X123004761Y-102627380D01*
X122909523Y-102579761D01*
X122861904Y-102484523D01*
X122861904Y-102103571D01*
X122909523Y-102008333D01*
X123004761Y-101960714D01*
X123195238Y-101960714D01*
X123290476Y-102008333D01*
X123338095Y-102103571D01*
X123338095Y-102198809D01*
X122861904Y-102294047D01*
X124195238Y-102627380D02*
X124195238Y-102103571D01*
X124147619Y-102008333D01*
X124052380Y-101960714D01*
X123861904Y-101960714D01*
X123766666Y-102008333D01*
X124195238Y-102579761D02*
X124100000Y-102627380D01*
X123861904Y-102627380D01*
X123766666Y-102579761D01*
X123719047Y-102484523D01*
X123719047Y-102389285D01*
X123766666Y-102294047D01*
X123861904Y-102246428D01*
X124100000Y-102246428D01*
X124195238Y-102198809D01*
X124671428Y-102627380D02*
X124671428Y-101960714D01*
X124671428Y-102151190D02*
X124719047Y-102055952D01*
X124766666Y-102008333D01*
X124861904Y-101960714D01*
X124957142Y-101960714D01*
X120766666Y-104229761D02*
X120909523Y-104277380D01*
X121147619Y-104277380D01*
X121242857Y-104229761D01*
X121290476Y-104182142D01*
X121338095Y-104086904D01*
X121338095Y-103991666D01*
X121290476Y-103896428D01*
X121242857Y-103848809D01*
X121147619Y-103801190D01*
X120957142Y-103753571D01*
X120861904Y-103705952D01*
X120814285Y-103658333D01*
X120766666Y-103563095D01*
X120766666Y-103467857D01*
X120814285Y-103372619D01*
X120861904Y-103325000D01*
X120957142Y-103277380D01*
X121195238Y-103277380D01*
X121338095Y-103325000D01*
X122195238Y-104229761D02*
X122100000Y-104277380D01*
X121909523Y-104277380D01*
X121814285Y-104229761D01*
X121766666Y-104182142D01*
X121719047Y-104086904D01*
X121719047Y-103801190D01*
X121766666Y-103705952D01*
X121814285Y-103658333D01*
X121909523Y-103610714D01*
X122100000Y-103610714D01*
X122195238Y-103658333D01*
X122623809Y-104277380D02*
X122623809Y-103610714D01*
X122623809Y-103801190D02*
X122671428Y-103705952D01*
X122719047Y-103658333D01*
X122814285Y-103610714D01*
X122909523Y-103610714D01*
X123623809Y-104229761D02*
X123528571Y-104277380D01*
X123338095Y-104277380D01*
X123242857Y-104229761D01*
X123195238Y-104134523D01*
X123195238Y-103753571D01*
X123242857Y-103658333D01*
X123338095Y-103610714D01*
X123528571Y-103610714D01*
X123623809Y-103658333D01*
X123671428Y-103753571D01*
X123671428Y-103848809D01*
X123195238Y-103944047D01*
X124480952Y-104229761D02*
X124385714Y-104277380D01*
X124195238Y-104277380D01*
X124100000Y-104229761D01*
X124052380Y-104134523D01*
X124052380Y-103753571D01*
X124100000Y-103658333D01*
X124195238Y-103610714D01*
X124385714Y-103610714D01*
X124480952Y-103658333D01*
X124528571Y-103753571D01*
X124528571Y-103848809D01*
X124052380Y-103944047D01*
X124957142Y-103610714D02*
X124957142Y-104277380D01*
X124957142Y-103705952D02*
X125004761Y-103658333D01*
X125100000Y-103610714D01*
X125242857Y-103610714D01*
X125338095Y-103658333D01*
X125385714Y-103753571D01*
X125385714Y-104277380D01*
X127770476Y-114466666D02*
X128246666Y-114466666D01*
X127675238Y-114752380D02*
X128008571Y-113752380D01*
X128341904Y-114752380D01*
X128675238Y-114085714D02*
X128675238Y-115085714D01*
X128675238Y-114133333D02*
X128770476Y-114085714D01*
X128960952Y-114085714D01*
X129056190Y-114133333D01*
X129103809Y-114180952D01*
X129151428Y-114276190D01*
X129151428Y-114561904D01*
X129103809Y-114657142D01*
X129056190Y-114704761D01*
X128960952Y-114752380D01*
X128770476Y-114752380D01*
X128675238Y-114704761D01*
X129580000Y-114085714D02*
X129580000Y-115085714D01*
X129580000Y-114133333D02*
X129675238Y-114085714D01*
X129865714Y-114085714D01*
X129960952Y-114133333D01*
X130008571Y-114180952D01*
X130056190Y-114276190D01*
X130056190Y-114561904D01*
X130008571Y-114657142D01*
X129960952Y-114704761D01*
X129865714Y-114752380D01*
X129675238Y-114752380D01*
X129580000Y-114704761D01*
X130627619Y-114752380D02*
X130532380Y-114704761D01*
X130484761Y-114609523D01*
X130484761Y-113752380D01*
X131389523Y-114704761D02*
X131294285Y-114752380D01*
X131103809Y-114752380D01*
X131008571Y-114704761D01*
X130960952Y-114609523D01*
X130960952Y-114228571D01*
X131008571Y-114133333D01*
X131103809Y-114085714D01*
X131294285Y-114085714D01*
X131389523Y-114133333D01*
X131437142Y-114228571D01*
X131437142Y-114323809D01*
X130960952Y-114419047D01*
X132627619Y-114752380D02*
X132627619Y-113752380D01*
X133103809Y-114752380D02*
X133103809Y-113752380D01*
X134294285Y-113704761D02*
X133437142Y-114990476D01*
X134627619Y-114752380D02*
X134627619Y-113752380D01*
X135103809Y-114752380D02*
X135103809Y-113752380D01*
X135580000Y-114371428D02*
X136341904Y-114371428D01*
X135960952Y-114752380D02*
X135960952Y-113990476D01*
X111609523Y-114466666D02*
X112085714Y-114466666D01*
X111514285Y-114752380D02*
X111847619Y-113752380D01*
X112180952Y-114752380D01*
X112514285Y-114085714D02*
X112514285Y-115085714D01*
X112514285Y-114133333D02*
X112609523Y-114085714D01*
X112800000Y-114085714D01*
X112895238Y-114133333D01*
X112942857Y-114180952D01*
X112990476Y-114276190D01*
X112990476Y-114561904D01*
X112942857Y-114657142D01*
X112895238Y-114704761D01*
X112800000Y-114752380D01*
X112609523Y-114752380D01*
X112514285Y-114704761D01*
X113419047Y-114085714D02*
X113419047Y-115085714D01*
X113419047Y-114133333D02*
X113514285Y-114085714D01*
X113704761Y-114085714D01*
X113800000Y-114133333D01*
X113847619Y-114180952D01*
X113895238Y-114276190D01*
X113895238Y-114561904D01*
X113847619Y-114657142D01*
X113800000Y-114704761D01*
X113704761Y-114752380D01*
X113514285Y-114752380D01*
X113419047Y-114704761D01*
X114466666Y-114752380D02*
X114371428Y-114704761D01*
X114323809Y-114609523D01*
X114323809Y-113752380D01*
X115228571Y-114704761D02*
X115133333Y-114752380D01*
X114942857Y-114752380D01*
X114847619Y-114704761D01*
X114799999Y-114609523D01*
X114799999Y-114228571D01*
X114847619Y-114133333D01*
X114942857Y-114085714D01*
X115133333Y-114085714D01*
X115228571Y-114133333D01*
X115276190Y-114228571D01*
X115276190Y-114323809D01*
X114799999Y-114419047D01*
X116990476Y-114752380D02*
X116419047Y-114752380D01*
X116704761Y-114752380D02*
X116704761Y-113752380D01*
X116609523Y-113895238D01*
X116514285Y-113990476D01*
X116419047Y-114038095D01*
D11*
%TO.C,J3*%
X125730000Y-98070000D02*
X125730000Y-99400000D01*
X124400000Y-98070000D02*
X125730000Y-98070000D01*
X123130000Y-98070000D02*
X123130000Y-100730000D01*
X123130000Y-100730000D02*
X120530000Y-100730000D01*
X123130000Y-98070000D02*
X120530000Y-98070000D01*
X120530000Y-98070000D02*
X120530000Y-100730000D01*
%TO.C,J1*%
X129480000Y-113090000D02*
X134680000Y-113090000D01*
X129480000Y-95250000D02*
X129480000Y-113090000D01*
X134680000Y-92650000D02*
X134680000Y-113090000D01*
X129480000Y-95250000D02*
X132080000Y-95250000D01*
X132080000Y-95250000D02*
X132080000Y-92650000D01*
X132080000Y-92650000D02*
X134680000Y-92650000D01*
X129480000Y-93980000D02*
X129480000Y-92650000D01*
X129480000Y-92650000D02*
X130810000Y-92650000D01*
%TO.C,J2*%
X111700000Y-92650000D02*
X113030000Y-92650000D01*
X111700000Y-93980000D02*
X111700000Y-92650000D01*
X114300000Y-92650000D02*
X116900000Y-92650000D01*
X114300000Y-95250000D02*
X114300000Y-92650000D01*
X111700000Y-95250000D02*
X114300000Y-95250000D01*
X116900000Y-92650000D02*
X116900000Y-113090000D01*
X111700000Y-95250000D02*
X111700000Y-113090000D01*
X111700000Y-113090000D02*
X116900000Y-113090000D01*
%TO.C,J3*%
D10*
X126182380Y-99733333D02*
X126896666Y-99733333D01*
X127039523Y-99780952D01*
X127134761Y-99876190D01*
X127182380Y-100019047D01*
X127182380Y-100114285D01*
X126182380Y-99352380D02*
X126182380Y-98733333D01*
X126563333Y-99066666D01*
X126563333Y-98923809D01*
X126610952Y-98828571D01*
X126658571Y-98780952D01*
X126753809Y-98733333D01*
X126991904Y-98733333D01*
X127087142Y-98780952D01*
X127134761Y-98828571D01*
X127182380Y-98923809D01*
X127182380Y-99209523D01*
X127134761Y-99304761D01*
X127087142Y-99352380D01*
%TO.C,J1*%
X131746666Y-91102380D02*
X131746666Y-91816666D01*
X131699047Y-91959523D01*
X131603809Y-92054761D01*
X131460952Y-92102380D01*
X131365714Y-92102380D01*
X132746666Y-92102380D02*
X132175238Y-92102380D01*
X132460952Y-92102380D02*
X132460952Y-91102380D01*
X132365714Y-91245238D01*
X132270476Y-91340476D01*
X132175238Y-91388095D01*
%TO.C,J2*%
X113966666Y-91102380D02*
X113966666Y-91816666D01*
X113919047Y-91959523D01*
X113823809Y-92054761D01*
X113680952Y-92102380D01*
X113585714Y-92102380D01*
X114395238Y-91197619D02*
X114442857Y-91150000D01*
X114538095Y-91102380D01*
X114776190Y-91102380D01*
X114871428Y-91150000D01*
X114919047Y-91197619D01*
X114966666Y-91292857D01*
X114966666Y-91388095D01*
X114919047Y-91530952D01*
X114347619Y-92102380D01*
X114966666Y-92102380D01*
%TD*%
M02*
