%TF.GenerationSoftware,KiCad,Pcbnew,(5.1.9)-1*%
%TF.CreationDate,2021-08-12T01:32:41-07:00*%
%TF.ProjectId,Apple2to1,4170706c-6532-4746-9f31-2e6b69636164,rev?*%
%TF.SameCoordinates,Original*%
%TF.FileFunction,Copper,L2,Bot*%
%TF.FilePolarity,Positive*%
%FSLAX46Y46*%
G04 Gerber Fmt 4.6, Leading zero omitted, Abs format (unit mm)*
G04 Created by KiCad (PCBNEW (5.1.9)-1) date 2021-08-12 01:32:41*
%MOMM*%
%LPD*%
G01*
G04 APERTURE LIST*
%TA.AperFunction,ComponentPad*%
%ADD10R,1.700000X1.700000*%
%TD*%
%TA.AperFunction,ComponentPad*%
%ADD11O,1.700000X1.700000*%
%TD*%
%TA.AperFunction,Conductor*%
%ADD12C,0.250000*%
%TD*%
%TA.AperFunction,Conductor*%
%ADD13C,0.254000*%
%TD*%
%TA.AperFunction,Conductor*%
%ADD14C,0.100000*%
%TD*%
G04 APERTURE END LIST*
D10*
%TO.P,J3,1*%
%TO.N,+5V*%
X124400000Y-99400000D03*
D11*
%TO.P,J3,2*%
%TO.N,Net-(J1-Pad4)*%
X121860000Y-99400000D03*
%TD*%
%TO.P,J1,9*%
%TO.N,N/C*%
X133350000Y-111760000D03*
%TO.P,J1,8*%
%TO.N,GND*%
X130810000Y-111760000D03*
%TO.P,J1,10*%
%TO.N,/data3*%
X133350000Y-109220000D03*
%TO.P,J1,7*%
%TO.N,/data7*%
X130810000Y-109220000D03*
%TO.P,J1,11*%
%TO.N,/data4*%
X133350000Y-106680000D03*
%TO.P,J1,6*%
%TO.N,/data5*%
X130810000Y-106680000D03*
%TO.P,J1,12*%
%TO.N,/data1*%
X133350000Y-104140000D03*
%TO.P,J1,5*%
%TO.N,/data6*%
X130810000Y-104140000D03*
%TO.P,J1,13*%
%TO.N,/data2*%
X133350000Y-101600000D03*
%TO.P,J1,4*%
%TO.N,Net-(J1-Pad4)*%
X130810000Y-101600000D03*
%TO.P,J1,14*%
%TO.N,N/C*%
X133350000Y-99060000D03*
%TO.P,J1,3*%
%TO.N,/reset*%
X130810000Y-99060000D03*
%TO.P,J1,15*%
%TO.N,-12V*%
X133350000Y-96520000D03*
%TO.P,J1,2*%
%TO.N,/strobe*%
X130810000Y-96520000D03*
%TO.P,J1,16*%
%TO.N,N/C*%
X133350000Y-93980000D03*
D10*
%TO.P,J1,1*%
%TO.N,+5V*%
X130810000Y-93980000D03*
%TD*%
%TO.P,J2,1*%
%TO.N,/reset*%
X113030000Y-93980000D03*
D11*
%TO.P,J2,16*%
%TO.N,+5V*%
X115570000Y-93980000D03*
%TO.P,J2,2*%
%TO.N,/data4*%
X113030000Y-96520000D03*
%TO.P,J2,15*%
%TO.N,+5V*%
X115570000Y-96520000D03*
%TO.P,J2,3*%
%TO.N,/data3*%
X113030000Y-99060000D03*
%TO.P,J2,14*%
%TO.N,/strobe*%
X115570000Y-99060000D03*
%TO.P,J2,4*%
%TO.N,/data2*%
X113030000Y-101600000D03*
%TO.P,J2,13*%
%TO.N,N/C*%
X115570000Y-101600000D03*
%TO.P,J2,5*%
%TO.N,/data1*%
X113030000Y-104140000D03*
%TO.P,J2,12*%
%TO.N,Net-(J1-Pad4)*%
X115570000Y-104140000D03*
%TO.P,J2,6*%
%TO.N,/data5*%
X113030000Y-106680000D03*
%TO.P,J2,11*%
%TO.N,-12V*%
X115570000Y-106680000D03*
%TO.P,J2,7*%
%TO.N,/data6*%
X113030000Y-109220000D03*
%TO.P,J2,10*%
%TO.N,N/C*%
X115570000Y-109220000D03*
%TO.P,J2,8*%
%TO.N,/data7*%
X113030000Y-111760000D03*
%TO.P,J2,9*%
%TO.N,GND*%
X115570000Y-111760000D03*
%TD*%
D12*
%TO.N,/data4*%
X135200000Y-104830000D02*
X133350000Y-106680000D01*
X135200000Y-92300000D02*
X135200000Y-104830000D01*
X134900000Y-92000000D02*
X135200000Y-92300000D01*
X111900000Y-92000000D02*
X134900000Y-92000000D01*
X110900000Y-93000000D02*
X111900000Y-92000000D01*
X110900000Y-95900000D02*
X110900000Y-93000000D01*
X111520000Y-96520000D02*
X110900000Y-95900000D01*
X113030000Y-96520000D02*
X111520000Y-96520000D01*
%TO.N,/data3*%
X135900000Y-106670000D02*
X133350000Y-109220000D01*
X135900000Y-91900000D02*
X135900000Y-106670000D01*
X135400000Y-91400000D02*
X135900000Y-91900000D01*
X111300000Y-91400000D02*
X135400000Y-91400000D01*
X110200000Y-92500000D02*
X111300000Y-91400000D01*
X110200000Y-97700000D02*
X110200000Y-92500000D01*
X111560000Y-99060000D02*
X110200000Y-97700000D01*
X113030000Y-99060000D02*
X111560000Y-99060000D01*
%TO.N,/data7*%
X129530000Y-110500000D02*
X130810000Y-109220000D01*
X114290000Y-110500000D02*
X129530000Y-110500000D01*
X113030000Y-111760000D02*
X114290000Y-110500000D01*
%TO.N,/data5*%
X129530000Y-105400000D02*
X130810000Y-106680000D01*
X114310000Y-105400000D02*
X129530000Y-105400000D01*
X113030000Y-106680000D02*
X114310000Y-105400000D01*
%TO.N,/data6*%
X132100000Y-105430000D02*
X130810000Y-104140000D01*
X132100000Y-107300000D02*
X132100000Y-105430000D01*
X131500000Y-107900000D02*
X132100000Y-107300000D01*
X114350000Y-107900000D02*
X131500000Y-107900000D01*
X113030000Y-109220000D02*
X114350000Y-107900000D01*
%TO.N,/reset*%
X132100000Y-97770000D02*
X130810000Y-99060000D01*
X132100000Y-95900000D02*
X132100000Y-97770000D01*
X131400000Y-95200000D02*
X132100000Y-95900000D01*
X114250000Y-95200000D02*
X131400000Y-95200000D01*
X113030000Y-93980000D02*
X114250000Y-95200000D01*
%TO.N,/strobe*%
X115570000Y-99060000D02*
X117140000Y-99060000D01*
X119680000Y-96520000D02*
X130810000Y-96520000D01*
X117140000Y-99060000D02*
X119680000Y-96520000D01*
%TO.N,Net-(J1-Pad4)*%
X121860000Y-99400000D02*
X124060000Y-101600000D01*
X124060000Y-101600000D02*
X130810000Y-101600000D01*
X115570000Y-104140000D02*
X117120000Y-104140000D01*
X117120000Y-104140000D02*
X121860000Y-99400000D01*
%TD*%
D13*
%TO.N,GND*%
X139040001Y-114921668D02*
X138919085Y-114629750D01*
X138701851Y-114304636D01*
X138425364Y-114028149D01*
X138100250Y-113810915D01*
X137739003Y-113661282D01*
X137355505Y-113585000D01*
X136964495Y-113585000D01*
X136580997Y-113661282D01*
X136219750Y-113810915D01*
X135894636Y-114028149D01*
X135618149Y-114304636D01*
X135400915Y-114629750D01*
X135251282Y-114990997D01*
X135175000Y-115374495D01*
X135175000Y-115765505D01*
X135251282Y-116149003D01*
X135400915Y-116510250D01*
X135618149Y-116835364D01*
X135894636Y-117111851D01*
X136219750Y-117329085D01*
X136511665Y-117450000D01*
X109868335Y-117450000D01*
X110160250Y-117329085D01*
X110485364Y-117111851D01*
X110761851Y-116835364D01*
X110979085Y-116510250D01*
X111128718Y-116149003D01*
X111205000Y-115765505D01*
X111205000Y-115374495D01*
X111128718Y-114990997D01*
X110979085Y-114629750D01*
X110761851Y-114304636D01*
X110485364Y-114028149D01*
X110160250Y-113810915D01*
X109799003Y-113661282D01*
X109415505Y-113585000D01*
X109024495Y-113585000D01*
X108640997Y-113661282D01*
X108279750Y-113810915D01*
X107954636Y-114028149D01*
X107678149Y-114304636D01*
X107460915Y-114629750D01*
X107340000Y-114921665D01*
X107340000Y-90818335D01*
X107460915Y-91110250D01*
X107678149Y-91435364D01*
X107954636Y-91711851D01*
X108279750Y-91929085D01*
X108640997Y-92078718D01*
X109024495Y-92155000D01*
X109415505Y-92155000D01*
X109535399Y-92131152D01*
X109494454Y-92207754D01*
X109450998Y-92351015D01*
X109436324Y-92500000D01*
X109440001Y-92537332D01*
X109440000Y-97662677D01*
X109436324Y-97700000D01*
X109440000Y-97737322D01*
X109440000Y-97737332D01*
X109450997Y-97848985D01*
X109481012Y-97947932D01*
X109494454Y-97992246D01*
X109565026Y-98124276D01*
X109604871Y-98172826D01*
X109659999Y-98240001D01*
X109689002Y-98263803D01*
X110996205Y-99571008D01*
X111019999Y-99600001D01*
X111048992Y-99623795D01*
X111048996Y-99623799D01*
X111119685Y-99681811D01*
X111135724Y-99694974D01*
X111267753Y-99765546D01*
X111411014Y-99809003D01*
X111522667Y-99820000D01*
X111522676Y-99820000D01*
X111559999Y-99823676D01*
X111597322Y-99820000D01*
X111751822Y-99820000D01*
X111876525Y-100006632D01*
X112083368Y-100213475D01*
X112257760Y-100330000D01*
X112083368Y-100446525D01*
X111876525Y-100653368D01*
X111714010Y-100896589D01*
X111602068Y-101166842D01*
X111545000Y-101453740D01*
X111545000Y-101746260D01*
X111602068Y-102033158D01*
X111714010Y-102303411D01*
X111876525Y-102546632D01*
X112083368Y-102753475D01*
X112257760Y-102870000D01*
X112083368Y-102986525D01*
X111876525Y-103193368D01*
X111714010Y-103436589D01*
X111602068Y-103706842D01*
X111545000Y-103993740D01*
X111545000Y-104286260D01*
X111602068Y-104573158D01*
X111714010Y-104843411D01*
X111876525Y-105086632D01*
X112083368Y-105293475D01*
X112257760Y-105410000D01*
X112083368Y-105526525D01*
X111876525Y-105733368D01*
X111714010Y-105976589D01*
X111602068Y-106246842D01*
X111545000Y-106533740D01*
X111545000Y-106826260D01*
X111602068Y-107113158D01*
X111714010Y-107383411D01*
X111876525Y-107626632D01*
X112083368Y-107833475D01*
X112257760Y-107950000D01*
X112083368Y-108066525D01*
X111876525Y-108273368D01*
X111714010Y-108516589D01*
X111602068Y-108786842D01*
X111545000Y-109073740D01*
X111545000Y-109366260D01*
X111602068Y-109653158D01*
X111714010Y-109923411D01*
X111876525Y-110166632D01*
X112083368Y-110373475D01*
X112257760Y-110490000D01*
X112083368Y-110606525D01*
X111876525Y-110813368D01*
X111714010Y-111056589D01*
X111602068Y-111326842D01*
X111545000Y-111613740D01*
X111545000Y-111906260D01*
X111602068Y-112193158D01*
X111714010Y-112463411D01*
X111876525Y-112706632D01*
X112083368Y-112913475D01*
X112326589Y-113075990D01*
X112596842Y-113187932D01*
X112883740Y-113245000D01*
X113176260Y-113245000D01*
X113463158Y-113187932D01*
X113733411Y-113075990D01*
X113976632Y-112913475D01*
X114183475Y-112706632D01*
X114301100Y-112530594D01*
X114472412Y-112760269D01*
X114688645Y-112955178D01*
X114938748Y-113104157D01*
X115213109Y-113201481D01*
X115443000Y-113080814D01*
X115443000Y-111887000D01*
X115697000Y-111887000D01*
X115697000Y-113080814D01*
X115926891Y-113201481D01*
X116201252Y-113104157D01*
X116451355Y-112955178D01*
X116667588Y-112760269D01*
X116841641Y-112526920D01*
X116966825Y-112264099D01*
X117011476Y-112116890D01*
X129368524Y-112116890D01*
X129413175Y-112264099D01*
X129538359Y-112526920D01*
X129712412Y-112760269D01*
X129928645Y-112955178D01*
X130178748Y-113104157D01*
X130453109Y-113201481D01*
X130683000Y-113080814D01*
X130683000Y-111887000D01*
X129489845Y-111887000D01*
X129368524Y-112116890D01*
X117011476Y-112116890D01*
X116890155Y-111887000D01*
X115697000Y-111887000D01*
X115443000Y-111887000D01*
X115423000Y-111887000D01*
X115423000Y-111633000D01*
X115443000Y-111633000D01*
X115443000Y-111613000D01*
X115697000Y-111613000D01*
X115697000Y-111633000D01*
X116890155Y-111633000D01*
X117011476Y-111403110D01*
X116968068Y-111260000D01*
X129411932Y-111260000D01*
X129368524Y-111403110D01*
X129489845Y-111633000D01*
X130683000Y-111633000D01*
X130683000Y-111613000D01*
X130937000Y-111613000D01*
X130937000Y-111633000D01*
X130957000Y-111633000D01*
X130957000Y-111887000D01*
X130937000Y-111887000D01*
X130937000Y-113080814D01*
X131166891Y-113201481D01*
X131441252Y-113104157D01*
X131691355Y-112955178D01*
X131907588Y-112760269D01*
X132078900Y-112530594D01*
X132196525Y-112706632D01*
X132403368Y-112913475D01*
X132646589Y-113075990D01*
X132916842Y-113187932D01*
X133203740Y-113245000D01*
X133496260Y-113245000D01*
X133783158Y-113187932D01*
X134053411Y-113075990D01*
X134296632Y-112913475D01*
X134503475Y-112706632D01*
X134665990Y-112463411D01*
X134777932Y-112193158D01*
X134835000Y-111906260D01*
X134835000Y-111613740D01*
X134777932Y-111326842D01*
X134665990Y-111056589D01*
X134503475Y-110813368D01*
X134296632Y-110606525D01*
X134122240Y-110490000D01*
X134296632Y-110373475D01*
X134503475Y-110166632D01*
X134665990Y-109923411D01*
X134777932Y-109653158D01*
X134835000Y-109366260D01*
X134835000Y-109073740D01*
X134791209Y-108853592D01*
X136411003Y-107233799D01*
X136440001Y-107210001D01*
X136534974Y-107094276D01*
X136605546Y-106962247D01*
X136649003Y-106818986D01*
X136660000Y-106707333D01*
X136663677Y-106670000D01*
X136660000Y-106632667D01*
X136660000Y-92094433D01*
X136964495Y-92155000D01*
X137355505Y-92155000D01*
X137739003Y-92078718D01*
X138100250Y-91929085D01*
X138425364Y-91711851D01*
X138701851Y-91435364D01*
X138919085Y-91110250D01*
X139040000Y-90818335D01*
X139040001Y-114921668D01*
%TA.AperFunction,Conductor*%
D14*
G36*
X139040001Y-114921668D02*
G01*
X138919085Y-114629750D01*
X138701851Y-114304636D01*
X138425364Y-114028149D01*
X138100250Y-113810915D01*
X137739003Y-113661282D01*
X137355505Y-113585000D01*
X136964495Y-113585000D01*
X136580997Y-113661282D01*
X136219750Y-113810915D01*
X135894636Y-114028149D01*
X135618149Y-114304636D01*
X135400915Y-114629750D01*
X135251282Y-114990997D01*
X135175000Y-115374495D01*
X135175000Y-115765505D01*
X135251282Y-116149003D01*
X135400915Y-116510250D01*
X135618149Y-116835364D01*
X135894636Y-117111851D01*
X136219750Y-117329085D01*
X136511665Y-117450000D01*
X109868335Y-117450000D01*
X110160250Y-117329085D01*
X110485364Y-117111851D01*
X110761851Y-116835364D01*
X110979085Y-116510250D01*
X111128718Y-116149003D01*
X111205000Y-115765505D01*
X111205000Y-115374495D01*
X111128718Y-114990997D01*
X110979085Y-114629750D01*
X110761851Y-114304636D01*
X110485364Y-114028149D01*
X110160250Y-113810915D01*
X109799003Y-113661282D01*
X109415505Y-113585000D01*
X109024495Y-113585000D01*
X108640997Y-113661282D01*
X108279750Y-113810915D01*
X107954636Y-114028149D01*
X107678149Y-114304636D01*
X107460915Y-114629750D01*
X107340000Y-114921665D01*
X107340000Y-90818335D01*
X107460915Y-91110250D01*
X107678149Y-91435364D01*
X107954636Y-91711851D01*
X108279750Y-91929085D01*
X108640997Y-92078718D01*
X109024495Y-92155000D01*
X109415505Y-92155000D01*
X109535399Y-92131152D01*
X109494454Y-92207754D01*
X109450998Y-92351015D01*
X109436324Y-92500000D01*
X109440001Y-92537332D01*
X109440000Y-97662677D01*
X109436324Y-97700000D01*
X109440000Y-97737322D01*
X109440000Y-97737332D01*
X109450997Y-97848985D01*
X109481012Y-97947932D01*
X109494454Y-97992246D01*
X109565026Y-98124276D01*
X109604871Y-98172826D01*
X109659999Y-98240001D01*
X109689002Y-98263803D01*
X110996205Y-99571008D01*
X111019999Y-99600001D01*
X111048992Y-99623795D01*
X111048996Y-99623799D01*
X111119685Y-99681811D01*
X111135724Y-99694974D01*
X111267753Y-99765546D01*
X111411014Y-99809003D01*
X111522667Y-99820000D01*
X111522676Y-99820000D01*
X111559999Y-99823676D01*
X111597322Y-99820000D01*
X111751822Y-99820000D01*
X111876525Y-100006632D01*
X112083368Y-100213475D01*
X112257760Y-100330000D01*
X112083368Y-100446525D01*
X111876525Y-100653368D01*
X111714010Y-100896589D01*
X111602068Y-101166842D01*
X111545000Y-101453740D01*
X111545000Y-101746260D01*
X111602068Y-102033158D01*
X111714010Y-102303411D01*
X111876525Y-102546632D01*
X112083368Y-102753475D01*
X112257760Y-102870000D01*
X112083368Y-102986525D01*
X111876525Y-103193368D01*
X111714010Y-103436589D01*
X111602068Y-103706842D01*
X111545000Y-103993740D01*
X111545000Y-104286260D01*
X111602068Y-104573158D01*
X111714010Y-104843411D01*
X111876525Y-105086632D01*
X112083368Y-105293475D01*
X112257760Y-105410000D01*
X112083368Y-105526525D01*
X111876525Y-105733368D01*
X111714010Y-105976589D01*
X111602068Y-106246842D01*
X111545000Y-106533740D01*
X111545000Y-106826260D01*
X111602068Y-107113158D01*
X111714010Y-107383411D01*
X111876525Y-107626632D01*
X112083368Y-107833475D01*
X112257760Y-107950000D01*
X112083368Y-108066525D01*
X111876525Y-108273368D01*
X111714010Y-108516589D01*
X111602068Y-108786842D01*
X111545000Y-109073740D01*
X111545000Y-109366260D01*
X111602068Y-109653158D01*
X111714010Y-109923411D01*
X111876525Y-110166632D01*
X112083368Y-110373475D01*
X112257760Y-110490000D01*
X112083368Y-110606525D01*
X111876525Y-110813368D01*
X111714010Y-111056589D01*
X111602068Y-111326842D01*
X111545000Y-111613740D01*
X111545000Y-111906260D01*
X111602068Y-112193158D01*
X111714010Y-112463411D01*
X111876525Y-112706632D01*
X112083368Y-112913475D01*
X112326589Y-113075990D01*
X112596842Y-113187932D01*
X112883740Y-113245000D01*
X113176260Y-113245000D01*
X113463158Y-113187932D01*
X113733411Y-113075990D01*
X113976632Y-112913475D01*
X114183475Y-112706632D01*
X114301100Y-112530594D01*
X114472412Y-112760269D01*
X114688645Y-112955178D01*
X114938748Y-113104157D01*
X115213109Y-113201481D01*
X115443000Y-113080814D01*
X115443000Y-111887000D01*
X115697000Y-111887000D01*
X115697000Y-113080814D01*
X115926891Y-113201481D01*
X116201252Y-113104157D01*
X116451355Y-112955178D01*
X116667588Y-112760269D01*
X116841641Y-112526920D01*
X116966825Y-112264099D01*
X117011476Y-112116890D01*
X129368524Y-112116890D01*
X129413175Y-112264099D01*
X129538359Y-112526920D01*
X129712412Y-112760269D01*
X129928645Y-112955178D01*
X130178748Y-113104157D01*
X130453109Y-113201481D01*
X130683000Y-113080814D01*
X130683000Y-111887000D01*
X129489845Y-111887000D01*
X129368524Y-112116890D01*
X117011476Y-112116890D01*
X116890155Y-111887000D01*
X115697000Y-111887000D01*
X115443000Y-111887000D01*
X115423000Y-111887000D01*
X115423000Y-111633000D01*
X115443000Y-111633000D01*
X115443000Y-111613000D01*
X115697000Y-111613000D01*
X115697000Y-111633000D01*
X116890155Y-111633000D01*
X117011476Y-111403110D01*
X116968068Y-111260000D01*
X129411932Y-111260000D01*
X129368524Y-111403110D01*
X129489845Y-111633000D01*
X130683000Y-111633000D01*
X130683000Y-111613000D01*
X130937000Y-111613000D01*
X130937000Y-111633000D01*
X130957000Y-111633000D01*
X130957000Y-111887000D01*
X130937000Y-111887000D01*
X130937000Y-113080814D01*
X131166891Y-113201481D01*
X131441252Y-113104157D01*
X131691355Y-112955178D01*
X131907588Y-112760269D01*
X132078900Y-112530594D01*
X132196525Y-112706632D01*
X132403368Y-112913475D01*
X132646589Y-113075990D01*
X132916842Y-113187932D01*
X133203740Y-113245000D01*
X133496260Y-113245000D01*
X133783158Y-113187932D01*
X134053411Y-113075990D01*
X134296632Y-112913475D01*
X134503475Y-112706632D01*
X134665990Y-112463411D01*
X134777932Y-112193158D01*
X134835000Y-111906260D01*
X134835000Y-111613740D01*
X134777932Y-111326842D01*
X134665990Y-111056589D01*
X134503475Y-110813368D01*
X134296632Y-110606525D01*
X134122240Y-110490000D01*
X134296632Y-110373475D01*
X134503475Y-110166632D01*
X134665990Y-109923411D01*
X134777932Y-109653158D01*
X134835000Y-109366260D01*
X134835000Y-109073740D01*
X134791209Y-108853592D01*
X136411003Y-107233799D01*
X136440001Y-107210001D01*
X136534974Y-107094276D01*
X136605546Y-106962247D01*
X136649003Y-106818986D01*
X136660000Y-106707333D01*
X136663677Y-106670000D01*
X136660000Y-106632667D01*
X136660000Y-92094433D01*
X136964495Y-92155000D01*
X137355505Y-92155000D01*
X137739003Y-92078718D01*
X138100250Y-91929085D01*
X138425364Y-91711851D01*
X138701851Y-91435364D01*
X138919085Y-91110250D01*
X139040000Y-90818335D01*
X139040001Y-114921668D01*
G37*
%TD.AperFunction*%
%TD*%
M02*
